<?xml version="1.0" encoding="utf-8" standalone="no"?>
<!DOCTYPE svg PUBLIC "-//W3C//DTD SVG 1.1//EN"
  "http://www.w3.org/Graphics/SVG/1.1/DTD/svg11.dtd">
<svg xmlns:xlink="http://www.w3.org/1999/xlink" width="785.074297pt" height="294.278625pt" viewBox="0 0 785.074297 294.278625" xmlns="http://www.w3.org/2000/svg" version="1.1">
 <metadata>
  <rdf:RDF xmlns:dc="http://purl.org/dc/elements/1.1/" xmlns:cc="http://creativecommons.org/ns#" xmlns:rdf="http://www.w3.org/1999/02/22-rdf-syntax-ns#">
   <cc:Work>
    <dc:type rdf:resource="http://purl.org/dc/dcmitype/StillImage"/>
    <dc:date>2026-05-22T18:42:41.266122</dc:date>
    <dc:format>image/svg+xml</dc:format>
    <dc:creator>
     <cc:Agent>
      <dc:title>Matplotlib v3.10.8, https://matplotlib.org/</dc:title>
     </cc:Agent>
    </dc:creator>
   </cc:Work>
  </rdf:RDF>
 </metadata>
 <defs>
  <style type="text/css">*{stroke-linejoin: round; stroke-linecap: butt}</style>
 </defs>
 <g id="figure_1">
  <g id="patch_1">
   <path d="M 0 294.278625 
L 785.074297 294.278625 
L 785.074297 0 
L 0 0 
z
" style="fill: #ffffff"/>
  </g>
  <g id="axes_1">
   <g id="patch_2">
    <path d="M 40.254297 257.206281 
L 380.884297 257.206281 
L 380.884297 21.558281 
L 40.254297 21.558281 
z
" style="fill: #ffffff"/>
   </g>
   <g id="matplotlib.axis_1">
    <g id="xtick_1">
     <g id="line2d_1">
      <path d="M 55.737479 257.206281 
L 55.737479 21.558281 
" clip-path="url(#pf2bcc6ce6b)" style="fill: none; stroke: #cccccc; stroke-width: 0.4; stroke-linecap: square"/>
     </g>
     <g id="line2d_2">
      <defs>
       <path id="m7804d199b2" d="M 0 0 
L 0 3.5 
" style="stroke: #000000; stroke-width: 0.8"/>
      </defs>
      <g>
       <use xlink:href="#m7804d199b2" x="55.737479" y="257.206281" style="stroke: #000000; stroke-width: 0.8"/>
      </g>
     </g>
     <g id="text_1">
      <!-- $\mathdefault{2^{2}}$ -->
      <g transform="translate(50.137479 271.804719)">
       <text>
        <tspan x="0" y="-0.173438" style="font-size: 10px; font-family: 'DejaVu Serif'">2</tspan>
        <tspan x="6.453086" y="-3.804688" style="font-size: 7px; font-family: 'DejaVu Serif'">2</tspan>
       </text>
      </g>
     </g>
    </g>
    <g id="xtick_2">
     <g id="line2d_3">
      <path d="M 107.348085 257.206281 
L 107.348085 21.558281 
" clip-path="url(#pf2bcc6ce6b)" style="fill: none; stroke: #cccccc; stroke-width: 0.4; stroke-linecap: square"/>
     </g>
     <g id="line2d_4">
      <g>
       <use xlink:href="#m7804d199b2" x="107.348085" y="257.206281" style="stroke: #000000; stroke-width: 0.8"/>
      </g>
     </g>
     <g id="text_2">
      <!-- $\mathdefault{2^{3}}$ -->
      <g transform="translate(101.748085 271.804719)">
       <text>
        <tspan x="0" y="-0.173438" style="font-size: 10px; font-family: 'DejaVu Serif'">2</tspan>
        <tspan x="6.453086" y="-3.804688" style="font-size: 7px; font-family: 'DejaVu Serif'">3</tspan>
       </text>
      </g>
     </g>
    </g>
    <g id="xtick_3">
     <g id="line2d_5">
      <path d="M 158.958691 257.206281 
L 158.958691 21.558281 
" clip-path="url(#pf2bcc6ce6b)" style="fill: none; stroke: #cccccc; stroke-width: 0.4; stroke-linecap: square"/>
     </g>
     <g id="line2d_6">
      <g>
       <use xlink:href="#m7804d199b2" x="158.958691" y="257.206281" style="stroke: #000000; stroke-width: 0.8"/>
      </g>
     </g>
     <g id="text_3">
      <!-- $\mathdefault{2^{4}}$ -->
      <g transform="translate(153.358691 271.804719)">
       <text>
        <tspan x="0" y="-0.173438" style="font-size: 10px; font-family: 'DejaVu Serif'">2</tspan>
        <tspan x="6.453086" y="-3.804688" style="font-size: 7px; font-family: 'DejaVu Serif'">4</tspan>
       </text>
      </g>
     </g>
    </g>
    <g id="xtick_4">
     <g id="line2d_7">
      <path d="M 210.569297 257.206281 
L 210.569297 21.558281 
" clip-path="url(#pf2bcc6ce6b)" style="fill: none; stroke: #cccccc; stroke-width: 0.4; stroke-linecap: square"/>
     </g>
     <g id="line2d_8">
      <g>
       <use xlink:href="#m7804d199b2" x="210.569297" y="257.206281" style="stroke: #000000; stroke-width: 0.8"/>
      </g>
     </g>
     <g id="text_4">
      <!-- $\mathdefault{2^{5}}$ -->
      <g transform="translate(204.969297 271.804719)">
       <text>
        <tspan x="0" y="-0.260938" style="font-size: 10px; font-family: 'DejaVu Serif'">2</tspan>
        <tspan x="6.453086" y="-3.892188" style="font-size: 7px; font-family: 'DejaVu Serif'">5</tspan>
       </text>
      </g>
     </g>
    </g>
    <g id="xtick_5">
     <g id="line2d_9">
      <path d="M 262.179903 257.206281 
L 262.179903 21.558281 
" clip-path="url(#pf2bcc6ce6b)" style="fill: none; stroke: #cccccc; stroke-width: 0.4; stroke-linecap: square"/>
     </g>
     <g id="line2d_10">
      <g>
       <use xlink:href="#m7804d199b2" x="262.179903" y="257.206281" style="stroke: #000000; stroke-width: 0.8"/>
      </g>
     </g>
     <g id="text_5">
      <!-- $\mathdefault{2^{6}}$ -->
      <g transform="translate(256.579903 271.804719)">
       <text>
        <tspan x="0" y="-0.173438" style="font-size: 10px; font-family: 'DejaVu Serif'">2</tspan>
        <tspan x="6.453086" y="-3.804688" style="font-size: 7px; font-family: 'DejaVu Serif'">6</tspan>
       </text>
      </g>
     </g>
    </g>
    <g id="xtick_6">
     <g id="line2d_11">
      <path d="M 313.790509 257.206281 
L 313.790509 21.558281 
" clip-path="url(#pf2bcc6ce6b)" style="fill: none; stroke: #cccccc; stroke-width: 0.4; stroke-linecap: square"/>
     </g>
     <g id="line2d_12">
      <g>
       <use xlink:href="#m7804d199b2" x="313.790509" y="257.206281" style="stroke: #000000; stroke-width: 0.8"/>
      </g>
     </g>
     <g id="text_6">
      <!-- $\mathdefault{2^{7}}$ -->
      <g transform="translate(308.190509 271.804719)">
       <text>
        <tspan x="0" y="-0.260938" style="font-size: 10px; font-family: 'DejaVu Serif'">2</tspan>
        <tspan x="6.453086" y="-3.892188" style="font-size: 7px; font-family: 'DejaVu Serif'">7</tspan>
       </text>
      </g>
     </g>
    </g>
    <g id="xtick_7">
     <g id="line2d_13">
      <path d="M 365.401115 257.206281 
L 365.401115 21.558281 
" clip-path="url(#pf2bcc6ce6b)" style="fill: none; stroke: #cccccc; stroke-width: 0.4; stroke-linecap: square"/>
     </g>
     <g id="line2d_14">
      <g>
       <use xlink:href="#m7804d199b2" x="365.401115" y="257.206281" style="stroke: #000000; stroke-width: 0.8"/>
      </g>
     </g>
     <g id="text_7">
      <!-- $\mathdefault{2^{8}}$ -->
      <g transform="translate(359.801115 271.804719)">
       <text>
        <tspan x="0" y="-0.173438" style="font-size: 10px; font-family: 'DejaVu Serif'">2</tspan>
        <tspan x="6.453086" y="-3.804688" style="font-size: 7px; font-family: 'DejaVu Serif'">8</tspan>
       </text>
      </g>
     </g>
    </g>
    <g id="text_8">
     <text style="font-size: 9.5px; font-family: 'DejaVu Serif', 'Times New Roman', 'Times', serif; text-anchor: middle" x="210.569297" y="285.102922" transform="rotate(-0 210.569297 285.102922)">cluster size N</text>
    </g>
   </g>
   <g id="matplotlib.axis_2">
    <g id="ytick_1">
     <g id="line2d_15">
      <path d="M 40.254297 246.495009 
L 380.884297 246.495009 
" clip-path="url(#pf2bcc6ce6b)" style="fill: none; stroke: #cccccc; stroke-width: 0.4; stroke-linecap: square"/>
     </g>
     <g id="line2d_16">
      <defs>
       <path id="m08224da582" d="M 0 0 
L -3.5 0 
" style="stroke: #000000; stroke-width: 0.8"/>
      </defs>
      <g>
       <use xlink:href="#m08224da582" x="40.254297" y="246.495009" style="stroke: #000000; stroke-width: 0.8"/>
      </g>
     </g>
     <g id="text_9">
      <text style="font-size: 10px; font-family: 'DejaVu Serif', 'Times New Roman', 'Times', serif; text-anchor: end" x="33.254297" y="250.294227" transform="rotate(-0 33.254297 250.294227)">2</text>
     </g>
    </g>
    <g id="ytick_2">
     <g id="line2d_17">
      <path d="M 40.254297 210.790766 
L 380.884297 210.790766 
" clip-path="url(#pf2bcc6ce6b)" style="fill: none; stroke: #cccccc; stroke-width: 0.4; stroke-linecap: square"/>
     </g>
     <g id="line2d_18">
      <g>
       <use xlink:href="#m08224da582" x="40.254297" y="210.790766" style="stroke: #000000; stroke-width: 0.8"/>
      </g>
     </g>
     <g id="text_10">
      <text style="font-size: 10px; font-family: 'DejaVu Serif', 'Times New Roman', 'Times', serif; text-anchor: end" x="33.254297" y="214.589985" transform="rotate(-0 33.254297 214.589985)">4</text>
     </g>
    </g>
    <g id="ytick_3">
     <g id="line2d_19">
      <path d="M 40.254297 175.086524 
L 380.884297 175.086524 
" clip-path="url(#pf2bcc6ce6b)" style="fill: none; stroke: #cccccc; stroke-width: 0.4; stroke-linecap: square"/>
     </g>
     <g id="line2d_20">
      <g>
       <use xlink:href="#m08224da582" x="40.254297" y="175.086524" style="stroke: #000000; stroke-width: 0.8"/>
      </g>
     </g>
     <g id="text_11">
      <text style="font-size: 10px; font-family: 'DejaVu Serif', 'Times New Roman', 'Times', serif; text-anchor: end" x="33.254297" y="178.885742" transform="rotate(-0 33.254297 178.885742)">6</text>
     </g>
    </g>
    <g id="ytick_4">
     <g id="line2d_21">
      <path d="M 40.254297 139.382281 
L 380.884297 139.382281 
" clip-path="url(#pf2bcc6ce6b)" style="fill: none; stroke: #cccccc; stroke-width: 0.4; stroke-linecap: square"/>
     </g>
     <g id="line2d_22">
      <g>
       <use xlink:href="#m08224da582" x="40.254297" y="139.382281" style="stroke: #000000; stroke-width: 0.8"/>
      </g>
     </g>
     <g id="text_12">
      <text style="font-size: 10px; font-family: 'DejaVu Serif', 'Times New Roman', 'Times', serif; text-anchor: end" x="33.254297" y="143.1815" transform="rotate(-0 33.254297 143.1815)">8</text>
     </g>
    </g>
    <g id="ytick_5">
     <g id="line2d_23">
      <path d="M 40.254297 103.678039 
L 380.884297 103.678039 
" clip-path="url(#pf2bcc6ce6b)" style="fill: none; stroke: #cccccc; stroke-width: 0.4; stroke-linecap: square"/>
     </g>
     <g id="line2d_24">
      <g>
       <use xlink:href="#m08224da582" x="40.254297" y="103.678039" style="stroke: #000000; stroke-width: 0.8"/>
      </g>
     </g>
     <g id="text_13">
      <text style="font-size: 10px; font-family: 'DejaVu Serif', 'Times New Roman', 'Times', serif; text-anchor: end" x="33.254297" y="107.477258" transform="rotate(-0 33.254297 107.477258)">10</text>
     </g>
    </g>
    <g id="ytick_6">
     <g id="line2d_25">
      <path d="M 40.254297 67.973796 
L 380.884297 67.973796 
" clip-path="url(#pf2bcc6ce6b)" style="fill: none; stroke: #cccccc; stroke-width: 0.4; stroke-linecap: square"/>
     </g>
     <g id="line2d_26">
      <g>
       <use xlink:href="#m08224da582" x="40.254297" y="67.973796" style="stroke: #000000; stroke-width: 0.8"/>
      </g>
     </g>
     <g id="text_14">
      <text style="font-size: 10px; font-family: 'DejaVu Serif', 'Times New Roman', 'Times', serif; text-anchor: end" x="33.254297" y="71.773015" transform="rotate(-0 33.254297 71.773015)">12</text>
     </g>
    </g>
    <g id="ytick_7">
     <g id="line2d_27">
      <path d="M 40.254297 32.269554 
L 380.884297 32.269554 
" clip-path="url(#pf2bcc6ce6b)" style="fill: none; stroke: #cccccc; stroke-width: 0.4; stroke-linecap: square"/>
     </g>
     <g id="line2d_28">
      <g>
       <use xlink:href="#m08224da582" x="40.254297" y="32.269554" style="stroke: #000000; stroke-width: 0.8"/>
      </g>
     </g>
     <g id="text_15">
      <text style="font-size: 10px; font-family: 'DejaVu Serif', 'Times New Roman', 'Times', serif; text-anchor: end" x="33.254297" y="36.068773" transform="rotate(-0 33.254297 36.068773)">14</text>
     </g>
    </g>
    <g id="text_16">
     <text style="font-size: 9.5px; font-family: 'DejaVu Serif', 'Times New Roman', 'Times', serif; text-anchor: middle" x="14.418516" y="139.382281" transform="rotate(-90 14.418516 139.382281)">convergence (gossip rounds)</text>
    </g>
   </g>
   <g id="line2d_29">
    <path d="M 55.737479 175.086524 
L 107.348085 192.938645 
L 158.958691 139.382281 
L 210.569297 121.53016 
L 262.179903 67.973796 
L 313.790509 103.678039 
L 365.401115 32.269554 
" clip-path="url(#pf2bcc6ce6b)" style="fill: none; stroke: #202020; stroke-width: 1.4; stroke-linecap: square"/>
    <defs>
     <path id="mb0c9c50e75" d="M 0 2 
C 0.530406 2 1.03916 1.789267 1.414214 1.414214 
C 1.789267 1.03916 2 0.530406 2 0 
C 2 -0.530406 1.789267 -1.03916 1.414214 -1.414214 
C 1.03916 -1.789267 0.530406 -2 0 -2 
C -0.530406 -2 -1.03916 -1.789267 -1.414214 -1.414214 
C -1.789267 -1.03916 -2 -0.530406 -2 0 
C -2 0.530406 -1.789267 1.03916 -1.414214 1.414214 
C -1.03916 1.789267 -0.530406 2 0 2 
z
" style="stroke: #202020"/>
    </defs>
    <g clip-path="url(#pf2bcc6ce6b)">
     <use xlink:href="#mb0c9c50e75" x="55.737479" y="175.086524" style="fill: #202020; stroke: #202020"/>
     <use xlink:href="#mb0c9c50e75" x="107.348085" y="192.938645" style="fill: #202020; stroke: #202020"/>
     <use xlink:href="#mb0c9c50e75" x="158.958691" y="139.382281" style="fill: #202020; stroke: #202020"/>
     <use xlink:href="#mb0c9c50e75" x="210.569297" y="121.53016" style="fill: #202020; stroke: #202020"/>
     <use xlink:href="#mb0c9c50e75" x="262.179903" y="67.973796" style="fill: #202020; stroke: #202020"/>
     <use xlink:href="#mb0c9c50e75" x="313.790509" y="103.678039" style="fill: #202020; stroke: #202020"/>
     <use xlink:href="#mb0c9c50e75" x="365.401115" y="32.269554" style="fill: #202020; stroke: #202020"/>
    </g>
   </g>
   <g id="line2d_30">
    <path d="M 55.737479 246.495009 
L 107.348085 210.790766 
L 158.958691 210.790766 
L 210.569297 192.938645 
L 262.179903 157.234402 
L 313.790509 175.086524 
L 365.401115 175.086524 
" clip-path="url(#pf2bcc6ce6b)" style="fill: none; stroke: #6e6e6e; stroke-width: 1.4; stroke-linecap: square"/>
    <defs>
     <path id="md04e02eec0" d="M 0 2 
C 0.530406 2 1.03916 1.789267 1.414214 1.414214 
C 1.789267 1.03916 2 0.530406 2 0 
C 2 -0.530406 1.789267 -1.03916 1.414214 -1.414214 
C 1.03916 -1.789267 0.530406 -2 0 -2 
C -0.530406 -2 -1.03916 -1.789267 -1.414214 -1.414214 
C -1.789267 -1.03916 -2 -0.530406 -2 0 
C -2 0.530406 -1.789267 1.03916 -1.414214 1.414214 
C -1.03916 1.789267 -0.530406 2 0 2 
z
" style="stroke: #6e6e6e"/>
    </defs>
    <g clip-path="url(#pf2bcc6ce6b)">
     <use xlink:href="#md04e02eec0" x="55.737479" y="246.495009" style="fill: #6e6e6e; stroke: #6e6e6e"/>
     <use xlink:href="#md04e02eec0" x="107.348085" y="210.790766" style="fill: #6e6e6e; stroke: #6e6e6e"/>
     <use xlink:href="#md04e02eec0" x="158.958691" y="210.790766" style="fill: #6e6e6e; stroke: #6e6e6e"/>
     <use xlink:href="#md04e02eec0" x="210.569297" y="192.938645" style="fill: #6e6e6e; stroke: #6e6e6e"/>
     <use xlink:href="#md04e02eec0" x="262.179903" y="157.234402" style="fill: #6e6e6e; stroke: #6e6e6e"/>
     <use xlink:href="#md04e02eec0" x="313.790509" y="175.086524" style="fill: #6e6e6e; stroke: #6e6e6e"/>
     <use xlink:href="#md04e02eec0" x="365.401115" y="175.086524" style="fill: #6e6e6e; stroke: #6e6e6e"/>
    </g>
   </g>
   <g id="line2d_31">
    <path d="M 55.737479 246.495009 
L 107.348085 228.642887 
L 158.958691 246.495009 
L 210.569297 228.642887 
L 262.179903 210.790766 
L 313.790509 210.790766 
L 365.401115 210.790766 
" clip-path="url(#pf2bcc6ce6b)" style="fill: none; stroke: #8a1a1f; stroke-width: 1.4; stroke-linecap: square"/>
    <defs>
     <path id="mfbe62cf0a4" d="M 0 2 
C 0.530406 2 1.03916 1.789267 1.414214 1.414214 
C 1.789267 1.03916 2 0.530406 2 0 
C 2 -0.530406 1.789267 -1.03916 1.414214 -1.414214 
C 1.03916 -1.789267 0.530406 -2 0 -2 
C -0.530406 -2 -1.03916 -1.789267 -1.414214 -1.414214 
C -1.789267 -1.03916 -2 -0.530406 -2 0 
C -2 0.530406 -1.789267 1.03916 -1.414214 1.414214 
C -1.03916 1.789267 -0.530406 2 0 2 
z
" style="stroke: #8a1a1f"/>
    </defs>
    <g clip-path="url(#pf2bcc6ce6b)">
     <use xlink:href="#mfbe62cf0a4" x="55.737479" y="246.495009" style="fill: #8a1a1f; stroke: #8a1a1f"/>
     <use xlink:href="#mfbe62cf0a4" x="107.348085" y="228.642887" style="fill: #8a1a1f; stroke: #8a1a1f"/>
     <use xlink:href="#mfbe62cf0a4" x="158.958691" y="246.495009" style="fill: #8a1a1f; stroke: #8a1a1f"/>
     <use xlink:href="#mfbe62cf0a4" x="210.569297" y="228.642887" style="fill: #8a1a1f; stroke: #8a1a1f"/>
     <use xlink:href="#mfbe62cf0a4" x="262.179903" y="210.790766" style="fill: #8a1a1f; stroke: #8a1a1f"/>
     <use xlink:href="#mfbe62cf0a4" x="313.790509" y="210.790766" style="fill: #8a1a1f; stroke: #8a1a1f"/>
     <use xlink:href="#mfbe62cf0a4" x="365.401115" y="210.790766" style="fill: #8a1a1f; stroke: #8a1a1f"/>
    </g>
   </g>
   <g id="line2d_32">
    <path d="M 107.348085 246.495009 
L 158.958691 246.495009 
L 210.569297 228.642887 
L 262.179903 210.790766 
L 313.790509 228.642887 
L 365.401115 210.790766 
" clip-path="url(#pf2bcc6ce6b)" style="fill: none; stroke: #274060; stroke-width: 1.4; stroke-linecap: square"/>
    <defs>
     <path id="m9f3c7b5c7e" d="M 0 2 
C 0.530406 2 1.03916 1.789267 1.414214 1.414214 
C 1.789267 1.03916 2 0.530406 2 0 
C 2 -0.530406 1.789267 -1.03916 1.414214 -1.414214 
C 1.03916 -1.789267 0.530406 -2 0 -2 
C -0.530406 -2 -1.03916 -1.789267 -1.414214 -1.414214 
C -1.789267 -1.03916 -2 -0.530406 -2 0 
C -2 0.530406 -1.789267 1.03916 -1.414214 1.414214 
C -1.03916 1.789267 -0.530406 2 0 2 
z
" style="stroke: #274060"/>
    </defs>
    <g clip-path="url(#pf2bcc6ce6b)">
     <use xlink:href="#m9f3c7b5c7e" x="107.348085" y="246.495009" style="fill: #274060; stroke: #274060"/>
     <use xlink:href="#m9f3c7b5c7e" x="158.958691" y="246.495009" style="fill: #274060; stroke: #274060"/>
     <use xlink:href="#m9f3c7b5c7e" x="210.569297" y="228.642887" style="fill: #274060; stroke: #274060"/>
     <use xlink:href="#m9f3c7b5c7e" x="262.179903" y="210.790766" style="fill: #274060; stroke: #274060"/>
     <use xlink:href="#m9f3c7b5c7e" x="313.790509" y="228.642887" style="fill: #274060; stroke: #274060"/>
     <use xlink:href="#m9f3c7b5c7e" x="365.401115" y="210.790766" style="fill: #274060; stroke: #274060"/>
    </g>
   </g>
   <g id="line2d_33">
    <path d="M 158.958691 246.495009 
L 210.569297 246.495009 
L 262.179903 246.495009 
L 313.790509 246.495009 
L 365.401115 228.642887 
" clip-path="url(#pf2bcc6ce6b)" style="fill: none; stroke: #7a6f4a; stroke-width: 1.4; stroke-linecap: square"/>
    <defs>
     <path id="m50e2414b85" d="M 0 2 
C 0.530406 2 1.03916 1.789267 1.414214 1.414214 
C 1.789267 1.03916 2 0.530406 2 0 
C 2 -0.530406 1.789267 -1.03916 1.414214 -1.414214 
C 1.03916 -1.789267 0.530406 -2 0 -2 
C -0.530406 -2 -1.03916 -1.789267 -1.414214 -1.414214 
C -1.789267 -1.03916 -2 -0.530406 -2 0 
C -2 0.530406 -1.789267 1.03916 -1.414214 1.414214 
C -1.03916 1.789267 -0.530406 2 0 2 
z
" style="stroke: #7a6f4a"/>
    </defs>
    <g clip-path="url(#pf2bcc6ce6b)">
     <use xlink:href="#m50e2414b85" x="158.958691" y="246.495009" style="fill: #7a6f4a; stroke: #7a6f4a"/>
     <use xlink:href="#m50e2414b85" x="210.569297" y="246.495009" style="fill: #7a6f4a; stroke: #7a6f4a"/>
     <use xlink:href="#m50e2414b85" x="262.179903" y="246.495009" style="fill: #7a6f4a; stroke: #7a6f4a"/>
     <use xlink:href="#m50e2414b85" x="313.790509" y="246.495009" style="fill: #7a6f4a; stroke: #7a6f4a"/>
     <use xlink:href="#m50e2414b85" x="365.401115" y="228.642887" style="fill: #7a6f4a; stroke: #7a6f4a"/>
    </g>
   </g>
   <g id="line2d_34">
    <path d="M 55.737479 246.495009 
L 107.348085 228.642887 
L 158.958691 210.790766 
L 210.569297 192.938645 
L 262.179903 175.086524 
L 313.790509 157.234402 
L 365.401115 139.382281 
" clip-path="url(#pf2bcc6ce6b)" style="fill: none; stroke-dasharray: 5.18,2.24; stroke-dashoffset: 0; stroke: #888888; stroke-width: 1.4"/>
   </g>
   <g id="patch_3">
    <path d="M 40.254297 257.206281 
L 40.254297 21.558281 
" style="fill: none; stroke: #202020; stroke-width: 0.6; stroke-linejoin: miter; stroke-linecap: square"/>
   </g>
   <g id="patch_4">
    <path d="M 40.254297 257.206281 
L 380.884297 257.206281 
" style="fill: none; stroke: #202020; stroke-width: 0.6; stroke-linejoin: miter; stroke-linecap: square"/>
   </g>
   <g id="text_17">
    <text style="font-size: 11px; font-family: 'DejaVu Serif', 'Times New Roman', 'Times', serif; text-anchor: middle" x="210.569297" y="15.558281" transform="rotate(-0 210.569297 15.558281)">Single-write convergence vs N</text>
   </g>
   <g id="legend_1">
    <g id="line2d_35">
     <path d="M 47.454297 32.037031 
L 55.454297 32.037031 
L 63.454297 32.037031 
" style="fill: none; stroke: #202020; stroke-width: 1.4; stroke-linecap: square"/>
     <g>
      <use xlink:href="#mb0c9c50e75" x="55.454297" y="32.037031" style="fill: #202020; stroke: #202020"/>
     </g>
    </g>
    <g id="text_18">
     <text style="font-size: 8px; font-family: 'DejaVu Serif', 'Times New Roman', 'Times', serif; text-anchor: start" x="69.854297" y="34.837031" transform="rotate(-0 69.854297 34.837031)">fanout=1</text>
    </g>
    <g id="line2d_36">
     <path d="M 47.454297 43.779531 
L 55.454297 43.779531 
L 63.454297 43.779531 
" style="fill: none; stroke: #6e6e6e; stroke-width: 1.4; stroke-linecap: square"/>
     <g>
      <use xlink:href="#md04e02eec0" x="55.454297" y="43.779531" style="fill: #6e6e6e; stroke: #6e6e6e"/>
     </g>
    </g>
    <g id="text_19">
     <text style="font-size: 8px; font-family: 'DejaVu Serif', 'Times New Roman', 'Times', serif; text-anchor: start" x="69.854297" y="46.579531" transform="rotate(-0 69.854297 46.579531)">fanout=2</text>
    </g>
    <g id="line2d_37">
     <path d="M 47.454297 55.522031 
L 55.454297 55.522031 
L 63.454297 55.522031 
" style="fill: none; stroke: #8a1a1f; stroke-width: 1.4; stroke-linecap: square"/>
     <g>
      <use xlink:href="#mfbe62cf0a4" x="55.454297" y="55.522031" style="fill: #8a1a1f; stroke: #8a1a1f"/>
     </g>
    </g>
    <g id="text_20">
     <text style="font-size: 8px; font-family: 'DejaVu Serif', 'Times New Roman', 'Times', serif; text-anchor: start" x="69.854297" y="58.322031" transform="rotate(-0 69.854297 58.322031)">fanout=3</text>
    </g>
    <g id="line2d_38">
     <path d="M 47.454297 67.264531 
L 55.454297 67.264531 
L 63.454297 67.264531 
" style="fill: none; stroke: #274060; stroke-width: 1.4; stroke-linecap: square"/>
     <g>
      <use xlink:href="#m9f3c7b5c7e" x="55.454297" y="67.264531" style="fill: #274060; stroke: #274060"/>
     </g>
    </g>
    <g id="text_21">
     <text style="font-size: 8px; font-family: 'DejaVu Serif', 'Times New Roman', 'Times', serif; text-anchor: start" x="69.854297" y="70.064531" transform="rotate(-0 69.854297 70.064531)">fanout=5</text>
    </g>
    <g id="line2d_39">
     <path d="M 47.454297 79.007031 
L 55.454297 79.007031 
L 63.454297 79.007031 
" style="fill: none; stroke: #7a6f4a; stroke-width: 1.4; stroke-linecap: square"/>
     <g>
      <use xlink:href="#m50e2414b85" x="55.454297" y="79.007031" style="fill: #7a6f4a; stroke: #7a6f4a"/>
     </g>
    </g>
    <g id="text_22">
     <text style="font-size: 8px; font-family: 'DejaVu Serif', 'Times New Roman', 'Times', serif; text-anchor: start" x="69.854297" y="81.807031" transform="rotate(-0 69.854297 81.807031)">fanout=8</text>
    </g>
    <g id="line2d_40">
     <path d="M 47.454297 90.749531 
L 55.454297 90.749531 
L 63.454297 90.749531 
" style="fill: none; stroke-dasharray: 5.18,2.24; stroke-dashoffset: 0; stroke: #888888; stroke-width: 1.4"/>
    </g>
    <g id="text_23">
     <text style="font-size: 8px; font-family: 'DejaVu Serif', 'Times New Roman', 'Times', serif; text-anchor: start" x="69.854297" y="93.549531" transform="rotate(-0 69.854297 93.549531)">log₂ N (Karp lower bound)</text>
    </g>
   </g>
  </g>
  <g id="axes_2">
   <g id="patch_5">
    <path d="M 437.244297 257.206281 
L 777.874297 257.206281 
L 777.874297 21.558281 
L 437.244297 21.558281 
z
" style="fill: #ffffff"/>
   </g>
   <g id="FillBetweenPolyCollection_1"/>
   <g id="FillBetweenPolyCollection_2"/>
   <g id="FillBetweenPolyCollection_3"/>
   <g id="FillBetweenPolyCollection_4"/>
   <g id="FillBetweenPolyCollection_5"/>
   <g id="matplotlib.axis_3">
    <g id="xtick_8">
     <g id="line2d_41">
      <path d="M 452.727479 257.206281 
L 452.727479 21.558281 
" clip-path="url(#pf687d5e578)" style="fill: none; stroke: #cccccc; stroke-width: 0.4; stroke-linecap: square"/>
     </g>
     <g id="line2d_42">
      <g>
       <use xlink:href="#m7804d199b2" x="452.727479" y="257.206281" style="stroke: #000000; stroke-width: 0.8"/>
      </g>
     </g>
     <g id="text_24">
      <!-- $\mathdefault{2^{2}}$ -->
      <g transform="translate(447.127479 271.804719)">
       <text>
        <tspan x="0" y="-0.173438" style="font-size: 10px; font-family: 'DejaVu Serif'">2</tspan>
        <tspan x="6.453086" y="-3.804688" style="font-size: 7px; font-family: 'DejaVu Serif'">2</tspan>
       </text>
      </g>
     </g>
    </g>
    <g id="xtick_9">
     <g id="line2d_43">
      <path d="M 504.338085 257.206281 
L 504.338085 21.558281 
" clip-path="url(#pf687d5e578)" style="fill: none; stroke: #cccccc; stroke-width: 0.4; stroke-linecap: square"/>
     </g>
     <g id="line2d_44">
      <g>
       <use xlink:href="#m7804d199b2" x="504.338085" y="257.206281" style="stroke: #000000; stroke-width: 0.8"/>
      </g>
     </g>
     <g id="text_25">
      <!-- $\mathdefault{2^{3}}$ -->
      <g transform="translate(498.738085 271.804719)">
       <text>
        <tspan x="0" y="-0.173438" style="font-size: 10px; font-family: 'DejaVu Serif'">2</tspan>
        <tspan x="6.453086" y="-3.804688" style="font-size: 7px; font-family: 'DejaVu Serif'">3</tspan>
       </text>
      </g>
     </g>
    </g>
    <g id="xtick_10">
     <g id="line2d_45">
      <path d="M 555.948691 257.206281 
L 555.948691 21.558281 
" clip-path="url(#pf687d5e578)" style="fill: none; stroke: #cccccc; stroke-width: 0.4; stroke-linecap: square"/>
     </g>
     <g id="line2d_46">
      <g>
       <use xlink:href="#m7804d199b2" x="555.948691" y="257.206281" style="stroke: #000000; stroke-width: 0.8"/>
      </g>
     </g>
     <g id="text_26">
      <!-- $\mathdefault{2^{4}}$ -->
      <g transform="translate(550.348691 271.804719)">
       <text>
        <tspan x="0" y="-0.173438" style="font-size: 10px; font-family: 'DejaVu Serif'">2</tspan>
        <tspan x="6.453086" y="-3.804688" style="font-size: 7px; font-family: 'DejaVu Serif'">4</tspan>
       </text>
      </g>
     </g>
    </g>
    <g id="xtick_11">
     <g id="line2d_47">
      <path d="M 607.559297 257.206281 
L 607.559297 21.558281 
" clip-path="url(#pf687d5e578)" style="fill: none; stroke: #cccccc; stroke-width: 0.4; stroke-linecap: square"/>
     </g>
     <g id="line2d_48">
      <g>
       <use xlink:href="#m7804d199b2" x="607.559297" y="257.206281" style="stroke: #000000; stroke-width: 0.8"/>
      </g>
     </g>
     <g id="text_27">
      <!-- $\mathdefault{2^{5}}$ -->
      <g transform="translate(601.959297 271.804719)">
       <text>
        <tspan x="0" y="-0.260938" style="font-size: 10px; font-family: 'DejaVu Serif'">2</tspan>
        <tspan x="6.453086" y="-3.892188" style="font-size: 7px; font-family: 'DejaVu Serif'">5</tspan>
       </text>
      </g>
     </g>
    </g>
    <g id="xtick_12">
     <g id="line2d_49">
      <path d="M 659.169903 257.206281 
L 659.169903 21.558281 
" clip-path="url(#pf687d5e578)" style="fill: none; stroke: #cccccc; stroke-width: 0.4; stroke-linecap: square"/>
     </g>
     <g id="line2d_50">
      <g>
       <use xlink:href="#m7804d199b2" x="659.169903" y="257.206281" style="stroke: #000000; stroke-width: 0.8"/>
      </g>
     </g>
     <g id="text_28">
      <!-- $\mathdefault{2^{6}}$ -->
      <g transform="translate(653.569903 271.804719)">
       <text>
        <tspan x="0" y="-0.173438" style="font-size: 10px; font-family: 'DejaVu Serif'">2</tspan>
        <tspan x="6.453086" y="-3.804688" style="font-size: 7px; font-family: 'DejaVu Serif'">6</tspan>
       </text>
      </g>
     </g>
    </g>
    <g id="xtick_13">
     <g id="line2d_51">
      <path d="M 710.780509 257.206281 
L 710.780509 21.558281 
" clip-path="url(#pf687d5e578)" style="fill: none; stroke: #cccccc; stroke-width: 0.4; stroke-linecap: square"/>
     </g>
     <g id="line2d_52">
      <g>
       <use xlink:href="#m7804d199b2" x="710.780509" y="257.206281" style="stroke: #000000; stroke-width: 0.8"/>
      </g>
     </g>
     <g id="text_29">
      <!-- $\mathdefault{2^{7}}$ -->
      <g transform="translate(705.180509 271.804719)">
       <text>
        <tspan x="0" y="-0.260938" style="font-size: 10px; font-family: 'DejaVu Serif'">2</tspan>
        <tspan x="6.453086" y="-3.892188" style="font-size: 7px; font-family: 'DejaVu Serif'">7</tspan>
       </text>
      </g>
     </g>
    </g>
    <g id="xtick_14">
     <g id="line2d_53">
      <path d="M 762.391115 257.206281 
L 762.391115 21.558281 
" clip-path="url(#pf687d5e578)" style="fill: none; stroke: #cccccc; stroke-width: 0.4; stroke-linecap: square"/>
     </g>
     <g id="line2d_54">
      <g>
       <use xlink:href="#m7804d199b2" x="762.391115" y="257.206281" style="stroke: #000000; stroke-width: 0.8"/>
      </g>
     </g>
     <g id="text_30">
      <!-- $\mathdefault{2^{8}}$ -->
      <g transform="translate(756.791115 271.804719)">
       <text>
        <tspan x="0" y="-0.173438" style="font-size: 10px; font-family: 'DejaVu Serif'">2</tspan>
        <tspan x="6.453086" y="-3.804688" style="font-size: 7px; font-family: 'DejaVu Serif'">8</tspan>
       </text>
      </g>
     </g>
    </g>
    <g id="text_31">
     <text style="font-size: 9.5px; font-family: 'DejaVu Serif', 'Times New Roman', 'Times', serif; text-anchor: middle" x="607.559297" y="285.102922" transform="rotate(-0 607.559297 285.102922)">cluster size N</text>
    </g>
   </g>
   <g id="matplotlib.axis_4">
    <g id="ytick_8">
     <g id="line2d_55">
      <path d="M 437.244297 238.784468 
L 777.874297 238.784468 
" clip-path="url(#pf687d5e578)" style="fill: none; stroke: #cccccc; stroke-width: 0.4; stroke-linecap: square"/>
     </g>
     <g id="line2d_56">
      <g>
       <use xlink:href="#m08224da582" x="437.244297" y="238.784468" style="stroke: #000000; stroke-width: 0.8"/>
      </g>
     </g>
     <g id="text_32">
      <text style="font-size: 10px; font-family: 'DejaVu Serif', 'Times New Roman', 'Times', serif; text-anchor: end" x="430.244297" y="242.583687" transform="rotate(-0 430.244297 242.583687)">1000</text>
     </g>
    </g>
    <g id="ytick_9">
     <g id="line2d_57">
      <path d="M 437.244297 201.91398 
L 777.874297 201.91398 
" clip-path="url(#pf687d5e578)" style="fill: none; stroke: #cccccc; stroke-width: 0.4; stroke-linecap: square"/>
     </g>
     <g id="line2d_58">
      <g>
       <use xlink:href="#m08224da582" x="437.244297" y="201.91398" style="stroke: #000000; stroke-width: 0.8"/>
      </g>
     </g>
     <g id="text_33">
      <text style="font-size: 10px; font-family: 'DejaVu Serif', 'Times New Roman', 'Times', serif; text-anchor: end" x="430.244297" y="205.713199" transform="rotate(-0 430.244297 205.713199)">2000</text>
     </g>
    </g>
    <g id="ytick_10">
     <g id="line2d_59">
      <path d="M 437.244297 165.043493 
L 777.874297 165.043493 
" clip-path="url(#pf687d5e578)" style="fill: none; stroke: #cccccc; stroke-width: 0.4; stroke-linecap: square"/>
     </g>
     <g id="line2d_60">
      <g>
       <use xlink:href="#m08224da582" x="437.244297" y="165.043493" style="stroke: #000000; stroke-width: 0.8"/>
      </g>
     </g>
     <g id="text_34">
      <text style="font-size: 10px; font-family: 'DejaVu Serif', 'Times New Roman', 'Times', serif; text-anchor: end" x="430.244297" y="168.842711" transform="rotate(-0 430.244297 168.842711)">3000</text>
     </g>
    </g>
    <g id="ytick_11">
     <g id="line2d_61">
      <path d="M 437.244297 128.173005 
L 777.874297 128.173005 
" clip-path="url(#pf687d5e578)" style="fill: none; stroke: #cccccc; stroke-width: 0.4; stroke-linecap: square"/>
     </g>
     <g id="line2d_62">
      <g>
       <use xlink:href="#m08224da582" x="437.244297" y="128.173005" style="stroke: #000000; stroke-width: 0.8"/>
      </g>
     </g>
     <g id="text_35">
      <text style="font-size: 10px; font-family: 'DejaVu Serif', 'Times New Roman', 'Times', serif; text-anchor: end" x="430.244297" y="131.972224" transform="rotate(-0 430.244297 131.972224)">4000</text>
     </g>
    </g>
    <g id="ytick_12">
     <g id="line2d_63">
      <path d="M 437.244297 91.302517 
L 777.874297 91.302517 
" clip-path="url(#pf687d5e578)" style="fill: none; stroke: #cccccc; stroke-width: 0.4; stroke-linecap: square"/>
     </g>
     <g id="line2d_64">
      <g>
       <use xlink:href="#m08224da582" x="437.244297" y="91.302517" style="stroke: #000000; stroke-width: 0.8"/>
      </g>
     </g>
     <g id="text_36">
      <text style="font-size: 10px; font-family: 'DejaVu Serif', 'Times New Roman', 'Times', serif; text-anchor: end" x="430.244297" y="95.101736" transform="rotate(-0 430.244297 95.101736)">5000</text>
     </g>
    </g>
    <g id="ytick_13">
     <g id="line2d_65">
      <path d="M 437.244297 54.43203 
L 777.874297 54.43203 
" clip-path="url(#pf687d5e578)" style="fill: none; stroke: #cccccc; stroke-width: 0.4; stroke-linecap: square"/>
     </g>
     <g id="line2d_66">
      <g>
       <use xlink:href="#m08224da582" x="437.244297" y="54.43203" style="stroke: #000000; stroke-width: 0.8"/>
      </g>
     </g>
     <g id="text_37">
      <text style="font-size: 10px; font-family: 'DejaVu Serif', 'Times New Roman', 'Times', serif; text-anchor: end" x="430.244297" y="58.231248" transform="rotate(-0 430.244297 58.231248)">6000</text>
     </g>
    </g>
    <g id="text_38">
     <text style="font-size: 9.5px; font-family: 'DejaVu Serif', 'Times New Roman', 'Times', serif; text-anchor: middle" x="398.683516" y="139.382281" transform="rotate(-90 398.683516 139.382281)">bytes / node / second</text>
    </g>
   </g>
   <g id="line2d_67">
    <path d="M 452.727479 246.407441 
L 504.338085 246.232306 
L 555.948691 246.495009 
L 607.559297 244.69112 
L 659.169903 241.751774 
L 710.780509 237.544368 
L 762.391115 233.065726 
" clip-path="url(#pf687d5e578)" style="fill: none; stroke: #edd1cb; stroke-width: 1.4; stroke-linecap: square"/>
    <defs>
     <path id="mf9c3561a8e" d="M 0 2 
C 0.530406 2 1.03916 1.789267 1.414214 1.414214 
C 1.789267 1.03916 2 0.530406 2 0 
C 2 -0.530406 1.789267 -1.03916 1.414214 -1.414214 
C 1.03916 -1.789267 0.530406 -2 0 -2 
C -0.530406 -2 -1.03916 -1.789267 -1.414214 -1.414214 
C -1.789267 -1.03916 -2 -0.530406 -2 0 
C -2 0.530406 -1.789267 1.03916 -1.414214 1.414214 
C -1.03916 1.789267 -0.530406 2 0 2 
z
" style="stroke: #ffffff; stroke-width: 0.75"/>
    </defs>
    <g clip-path="url(#pf687d5e578)">
     <use xlink:href="#mf9c3561a8e" x="452.727479" y="246.407441" style="fill: #edd1cb; stroke: #ffffff; stroke-width: 0.75"/>
     <use xlink:href="#mf9c3561a8e" x="504.338085" y="246.232306" style="fill: #edd1cb; stroke: #ffffff; stroke-width: 0.75"/>
     <use xlink:href="#mf9c3561a8e" x="555.948691" y="246.495009" style="fill: #edd1cb; stroke: #ffffff; stroke-width: 0.75"/>
     <use xlink:href="#mf9c3561a8e" x="607.559297" y="244.69112" style="fill: #edd1cb; stroke: #ffffff; stroke-width: 0.75"/>
     <use xlink:href="#mf9c3561a8e" x="659.169903" y="241.751774" style="fill: #edd1cb; stroke: #ffffff; stroke-width: 0.75"/>
     <use xlink:href="#mf9c3561a8e" x="710.780509" y="237.544368" style="fill: #edd1cb; stroke: #ffffff; stroke-width: 0.75"/>
     <use xlink:href="#mf9c3561a8e" x="762.391115" y="233.065726" style="fill: #edd1cb; stroke: #ffffff; stroke-width: 0.75"/>
    </g>
   </g>
   <g id="line2d_68">
    <path d="M 452.727479 220.312353 
L 504.338085 218.73614 
L 555.948691 218.166952 
L 607.559297 216.687063 
L 659.169903 214.029392 
L 710.780509 208.296854 
L 762.391115 200.411292 
" clip-path="url(#pf687d5e578)" style="fill: none; stroke: #e1b1b4; stroke-width: 1.4; stroke-linecap: square"/>
    <defs>
     <path id="me5c8209cdf" d="M 0 2 
C 0.530406 2 1.03916 1.789267 1.414214 1.414214 
C 1.789267 1.03916 2 0.530406 2 0 
C 2 -0.530406 1.789267 -1.03916 1.414214 -1.414214 
C 1.03916 -1.789267 0.530406 -2 0 -2 
C -0.530406 -2 -1.03916 -1.789267 -1.414214 -1.414214 
C -1.789267 -1.03916 -2 -0.530406 -2 0 
C -2 0.530406 -1.789267 1.03916 -1.414214 1.414214 
C -1.03916 1.789267 -0.530406 2 0 2 
z
" style="stroke: #ffffff; stroke-width: 0.75"/>
    </defs>
    <g clip-path="url(#pf687d5e578)">
     <use xlink:href="#me5c8209cdf" x="452.727479" y="220.312353" style="fill: #e1b1b4; stroke: #ffffff; stroke-width: 0.75"/>
     <use xlink:href="#me5c8209cdf" x="504.338085" y="218.73614" style="fill: #e1b1b4; stroke: #ffffff; stroke-width: 0.75"/>
     <use xlink:href="#me5c8209cdf" x="555.948691" y="218.166952" style="fill: #e1b1b4; stroke: #ffffff; stroke-width: 0.75"/>
     <use xlink:href="#me5c8209cdf" x="607.559297" y="216.687063" style="fill: #e1b1b4; stroke: #ffffff; stroke-width: 0.75"/>
     <use xlink:href="#me5c8209cdf" x="659.169903" y="214.029392" style="fill: #e1b1b4; stroke: #ffffff; stroke-width: 0.75"/>
     <use xlink:href="#me5c8209cdf" x="710.780509" y="208.296854" style="fill: #e1b1b4; stroke: #ffffff; stroke-width: 0.75"/>
     <use xlink:href="#me5c8209cdf" x="762.391115" y="200.411292" style="fill: #e1b1b4; stroke: #ffffff; stroke-width: 0.75"/>
    </g>
   </g>
   <g id="line2d_69">
    <path d="M 452.727479 192.641053 
L 504.338085 191.415109 
L 555.948691 189.357275 
L 607.559297 190.01403 
L 659.169903 185.752416 
L 710.780509 180.093894 
L 762.391115 171.233558 
" clip-path="url(#pf687d5e578)" style="fill: none; stroke: #cf91a3; stroke-width: 1.4; stroke-linecap: square"/>
    <defs>
     <path id="mac18cebb06" d="M 0 2 
C 0.530406 2 1.03916 1.789267 1.414214 1.414214 
C 1.789267 1.03916 2 0.530406 2 0 
C 2 -0.530406 1.789267 -1.03916 1.414214 -1.414214 
C 1.03916 -1.789267 0.530406 -2 0 -2 
C -0.530406 -2 -1.03916 -1.789267 -1.414214 -1.414214 
C -1.789267 -1.03916 -2 -0.530406 -2 0 
C -2 0.530406 -1.789267 1.03916 -1.414214 1.414214 
C -1.03916 1.789267 -0.530406 2 0 2 
z
" style="stroke: #ffffff; stroke-width: 0.75"/>
    </defs>
    <g clip-path="url(#pf687d5e578)">
     <use xlink:href="#mac18cebb06" x="452.727479" y="192.641053" style="fill: #cf91a3; stroke: #ffffff; stroke-width: 0.75"/>
     <use xlink:href="#mac18cebb06" x="504.338085" y="191.415109" style="fill: #cf91a3; stroke: #ffffff; stroke-width: 0.75"/>
     <use xlink:href="#mac18cebb06" x="555.948691" y="189.357275" style="fill: #cf91a3; stroke: #ffffff; stroke-width: 0.75"/>
     <use xlink:href="#mac18cebb06" x="607.559297" y="190.01403" style="fill: #cf91a3; stroke: #ffffff; stroke-width: 0.75"/>
     <use xlink:href="#mac18cebb06" x="659.169903" y="185.752416" style="fill: #cf91a3; stroke: #ffffff; stroke-width: 0.75"/>
     <use xlink:href="#mac18cebb06" x="710.780509" y="180.093894" style="fill: #cf91a3; stroke: #ffffff; stroke-width: 0.75"/>
     <use xlink:href="#mac18cebb06" x="762.391115" y="171.233558" style="fill: #cf91a3; stroke: #ffffff; stroke-width: 0.75"/>
    </g>
   </g>
   <g id="line2d_70">
    <path d="M 504.338085 137.210883 
L 555.948691 135.590886 
L 607.559297 132.850026 
L 659.169903 130.344139 
L 710.780509 125.314225 
L 762.391115 115.09464 
" clip-path="url(#pf687d5e578)" style="fill: none; stroke: #995a88; stroke-width: 1.4; stroke-linecap: square"/>
    <defs>
     <path id="m737d4db6f1" d="M 0 2 
C 0.530406 2 1.03916 1.789267 1.414214 1.414214 
C 1.789267 1.03916 2 0.530406 2 0 
C 2 -0.530406 1.789267 -1.03916 1.414214 -1.414214 
C 1.03916 -1.789267 0.530406 -2 0 -2 
C -0.530406 -2 -1.03916 -1.789267 -1.414214 -1.414214 
C -1.789267 -1.03916 -2 -0.530406 -2 0 
C -2 0.530406 -1.789267 1.03916 -1.414214 1.414214 
C -1.03916 1.789267 -0.530406 2 0 2 
z
" style="stroke: #ffffff; stroke-width: 0.75"/>
    </defs>
    <g clip-path="url(#pf687d5e578)">
     <use xlink:href="#m737d4db6f1" x="504.338085" y="137.210883" style="fill: #995a88; stroke: #ffffff; stroke-width: 0.75"/>
     <use xlink:href="#m737d4db6f1" x="555.948691" y="135.590886" style="fill: #995a88; stroke: #ffffff; stroke-width: 0.75"/>
     <use xlink:href="#m737d4db6f1" x="607.559297" y="132.850026" style="fill: #995a88; stroke: #ffffff; stroke-width: 0.75"/>
     <use xlink:href="#m737d4db6f1" x="659.169903" y="130.344139" style="fill: #995a88; stroke: #ffffff; stroke-width: 0.75"/>
     <use xlink:href="#m737d4db6f1" x="710.780509" y="125.314225" style="fill: #995a88; stroke: #ffffff; stroke-width: 0.75"/>
     <use xlink:href="#m737d4db6f1" x="762.391115" y="115.09464" style="fill: #995a88; stroke: #ffffff; stroke-width: 0.75"/>
    </g>
   </g>
   <g id="line2d_71">
    <path d="M 555.948691 57.174272 
L 607.559297 51.534931 
L 659.169903 48.184018 
L 710.780509 40.833568 
L 762.391115 32.269554 
" clip-path="url(#pf687d5e578)" style="fill: none; stroke: #2d1e3e; stroke-width: 1.4; stroke-linecap: square"/>
    <defs>
     <path id="md1432747ff" d="M 0 2 
C 0.530406 2 1.03916 1.789267 1.414214 1.414214 
C 1.789267 1.03916 2 0.530406 2 0 
C 2 -0.530406 1.789267 -1.03916 1.414214 -1.414214 
C 1.03916 -1.789267 0.530406 -2 0 -2 
C -0.530406 -2 -1.03916 -1.789267 -1.414214 -1.414214 
C -1.789267 -1.03916 -2 -0.530406 -2 0 
C -2 0.530406 -1.789267 1.03916 -1.414214 1.414214 
C -1.03916 1.789267 -0.530406 2 0 2 
z
" style="stroke: #ffffff; stroke-width: 0.75"/>
    </defs>
    <g clip-path="url(#pf687d5e578)">
     <use xlink:href="#md1432747ff" x="555.948691" y="57.174272" style="fill: #2d1e3e; stroke: #ffffff; stroke-width: 0.75"/>
     <use xlink:href="#md1432747ff" x="607.559297" y="51.534931" style="fill: #2d1e3e; stroke: #ffffff; stroke-width: 0.75"/>
     <use xlink:href="#md1432747ff" x="659.169903" y="48.184018" style="fill: #2d1e3e; stroke: #ffffff; stroke-width: 0.75"/>
     <use xlink:href="#md1432747ff" x="710.780509" y="40.833568" style="fill: #2d1e3e; stroke: #ffffff; stroke-width: 0.75"/>
     <use xlink:href="#md1432747ff" x="762.391115" y="32.269554" style="fill: #2d1e3e; stroke: #ffffff; stroke-width: 0.75"/>
    </g>
   </g>
   <g id="line2d_72"/>
   <g id="line2d_73"/>
   <g id="line2d_74"/>
   <g id="line2d_75"/>
   <g id="line2d_76"/>
   <g id="patch_6">
    <path d="M 437.244297 257.206281 
L 437.244297 21.558281 
" style="fill: none; stroke: #202020; stroke-width: 0.6; stroke-linejoin: miter; stroke-linecap: square"/>
   </g>
   <g id="patch_7">
    <path d="M 437.244297 257.206281 
L 777.874297 257.206281 
" style="fill: none; stroke: #202020; stroke-width: 0.6; stroke-linejoin: miter; stroke-linecap: square"/>
   </g>
   <g id="text_39">
    <text style="font-size: 11px; font-family: 'DejaVu Serif', 'Times New Roman', 'Times', serif; text-anchor: middle" x="607.559297" y="15.558281" transform="rotate(-0 607.559297 15.558281)">Idle gossip bandwidth</text>
   </g>
   <g id="legend_2">
    <g id="text_40">
     <text style="font-size: 10px; font-family: 'DejaVu Serif', 'Times New Roman', 'Times', serif; text-anchor: start" x="444.894297" y="36.806719" transform="rotate(-0 444.894297 36.806719)">fanout</text>
    </g>
    <g id="line2d_77">
     <path d="M 446.582422 46.620078 
L 455.082422 46.620078 
L 463.582422 46.620078 
" style="fill: none; stroke: #edd1cb; stroke-width: 1.4; stroke-linecap: square"/>
     <g>
      <use xlink:href="#mf9c3561a8e" x="455.082422" y="46.620078" style="fill: #edd1cb; stroke: #ffffff; stroke-width: 0.75"/>
     </g>
    </g>
    <g id="text_41">
     <text style="font-size: 8.5px; font-family: 'DejaVu Serif', 'Times New Roman', 'Times', serif; text-anchor: start" x="470.382422" y="49.595078" transform="rotate(-0 470.382422 49.595078)">1</text>
    </g>
    <g id="line2d_78">
     <path d="M 446.582422 59.096484 
L 455.082422 59.096484 
L 463.582422 59.096484 
" style="fill: none; stroke: #e1b1b4; stroke-width: 1.4; stroke-linecap: square"/>
     <g>
      <use xlink:href="#me5c8209cdf" x="455.082422" y="59.096484" style="fill: #e1b1b4; stroke: #ffffff; stroke-width: 0.75"/>
     </g>
    </g>
    <g id="text_42">
     <text style="font-size: 8.5px; font-family: 'DejaVu Serif', 'Times New Roman', 'Times', serif; text-anchor: start" x="470.382422" y="62.071484" transform="rotate(-0 470.382422 62.071484)">2</text>
    </g>
    <g id="line2d_79">
     <path d="M 446.582422 71.572891 
L 455.082422 71.572891 
L 463.582422 71.572891 
" style="fill: none; stroke: #cf91a3; stroke-width: 1.4; stroke-linecap: square"/>
     <g>
      <use xlink:href="#mac18cebb06" x="455.082422" y="71.572891" style="fill: #cf91a3; stroke: #ffffff; stroke-width: 0.75"/>
     </g>
    </g>
    <g id="text_43">
     <text style="font-size: 8.5px; font-family: 'DejaVu Serif', 'Times New Roman', 'Times', serif; text-anchor: start" x="470.382422" y="74.547891" transform="rotate(-0 470.382422 74.547891)">3</text>
    </g>
    <g id="line2d_80">
     <path d="M 446.582422 84.049297 
L 455.082422 84.049297 
L 463.582422 84.049297 
" style="fill: none; stroke: #995a88; stroke-width: 1.4; stroke-linecap: square"/>
     <g>
      <use xlink:href="#m737d4db6f1" x="455.082422" y="84.049297" style="fill: #995a88; stroke: #ffffff; stroke-width: 0.75"/>
     </g>
    </g>
    <g id="text_44">
     <text style="font-size: 8.5px; font-family: 'DejaVu Serif', 'Times New Roman', 'Times', serif; text-anchor: start" x="470.382422" y="87.024297" transform="rotate(-0 470.382422 87.024297)">5</text>
    </g>
    <g id="line2d_81">
     <path d="M 446.582422 96.525703 
L 455.082422 96.525703 
L 463.582422 96.525703 
" style="fill: none; stroke: #2d1e3e; stroke-width: 1.4; stroke-linecap: square"/>
     <g>
      <use xlink:href="#md1432747ff" x="455.082422" y="96.525703" style="fill: #2d1e3e; stroke: #ffffff; stroke-width: 0.75"/>
     </g>
    </g>
    <g id="text_45">
     <text style="font-size: 8.5px; font-family: 'DejaVu Serif', 'Times New Roman', 'Times', serif; text-anchor: start" x="470.382422" y="99.500703" transform="rotate(-0 470.382422 99.500703)">8</text>
    </g>
   </g>
  </g>
 </g>
 <defs>
  <clipPath id="pf2bcc6ce6b">
   <rect x="40.254297" y="21.558281" width="340.63" height="235.648"/>
  </clipPath>
  <clipPath id="pf687d5e578">
   <rect x="437.244297" y="21.558281" width="340.63" height="235.648"/>
  </clipPath>
 </defs>
</svg>
