<?xml version="1.0" encoding="utf-8" standalone="no"?>
<!DOCTYPE svg PUBLIC "-//W3C//DTD SVG 1.1//EN"
  "http://www.w3.org/Graphics/SVG/1.1/DTD/svg11.dtd">
<svg xmlns:xlink="http://www.w3.org/1999/xlink" width="784.856719pt" height="295.070625pt" viewBox="0 0 784.856719 295.070625" xmlns="http://www.w3.org/2000/svg" version="1.1">
 <metadata>
  <rdf:RDF xmlns:dc="http://purl.org/dc/elements/1.1/" xmlns:cc="http://creativecommons.org/ns#" xmlns:rdf="http://www.w3.org/1999/02/22-rdf-syntax-ns#">
   <cc:Work>
    <dc:type rdf:resource="http://purl.org/dc/dcmitype/StillImage"/>
    <dc:date>2026-05-22T18:44:17.612134</dc:date>
    <dc:format>image/svg+xml</dc:format>
    <dc:creator>
     <cc:Agent>
      <dc:title>Matplotlib v3.10.8, https://matplotlib.org/</dc:title>
     </cc:Agent>
    </dc:creator>
   </cc:Work>
  </rdf:RDF>
 </metadata>
 <defs>
  <style type="text/css">*{stroke-linejoin: round; stroke-linecap: butt}</style>
 </defs>
 <g id="figure_1">
  <g id="patch_1">
   <path d="M 0 295.070625 
L 784.856719 295.070625 
L 784.856719 0 
L 0 0 
z
" style="fill: #ffffff"/>
  </g>
  <g id="axes_1">
   <g id="patch_2">
    <path d="M 59.206719 257.998281 
L 399.836719 257.998281 
L 399.836719 21.558281 
L 59.206719 21.558281 
z
" style="fill: #ffffff"/>
   </g>
   <g id="matplotlib.axis_1">
    <g id="xtick_1">
     <g id="line2d_1">
      <path d="M 74.689901 257.998281 
L 74.689901 21.558281 
" clip-path="url(#p8df5acd3e5)" style="fill: none; stroke: #cccccc; stroke-width: 0.4; stroke-linecap: square"/>
     </g>
     <g id="line2d_2">
      <defs>
       <path id="m4d0ce05903" d="M 0 0 
L 0 3.5 
" style="stroke: #000000; stroke-width: 0.8"/>
      </defs>
      <g>
       <use xlink:href="#m4d0ce05903" x="74.689901" y="257.998281" style="stroke: #000000; stroke-width: 0.8"/>
      </g>
     </g>
     <g id="text_1">
      <text style="font-size: 10px; font-family: 'DejaVu Serif', 'Times New Roman', 'Times', serif; text-anchor: middle" x="74.689901" y="272.596719" transform="rotate(-0 74.689901 272.596719)">0</text>
     </g>
    </g>
    <g id="xtick_2">
     <g id="line2d_3">
      <path d="M 136.622628 257.998281 
L 136.622628 21.558281 
" clip-path="url(#p8df5acd3e5)" style="fill: none; stroke: #cccccc; stroke-width: 0.4; stroke-linecap: square"/>
     </g>
     <g id="line2d_4">
      <g>
       <use xlink:href="#m4d0ce05903" x="136.622628" y="257.998281" style="stroke: #000000; stroke-width: 0.8"/>
      </g>
     </g>
     <g id="text_2">
      <text style="font-size: 10px; font-family: 'DejaVu Serif', 'Times New Roman', 'Times', serif; text-anchor: middle" x="136.622628" y="272.596719" transform="rotate(-0 136.622628 272.596719)">1</text>
     </g>
    </g>
    <g id="xtick_3">
     <g id="line2d_5">
      <path d="M 198.555355 257.998281 
L 198.555355 21.558281 
" clip-path="url(#p8df5acd3e5)" style="fill: none; stroke: #cccccc; stroke-width: 0.4; stroke-linecap: square"/>
     </g>
     <g id="line2d_6">
      <g>
       <use xlink:href="#m4d0ce05903" x="198.555355" y="257.998281" style="stroke: #000000; stroke-width: 0.8"/>
      </g>
     </g>
     <g id="text_3">
      <text style="font-size: 10px; font-family: 'DejaVu Serif', 'Times New Roman', 'Times', serif; text-anchor: middle" x="198.555355" y="272.596719" transform="rotate(-0 198.555355 272.596719)">2</text>
     </g>
    </g>
    <g id="xtick_4">
     <g id="line2d_7">
      <path d="M 260.488082 257.998281 
L 260.488082 21.558281 
" clip-path="url(#p8df5acd3e5)" style="fill: none; stroke: #cccccc; stroke-width: 0.4; stroke-linecap: square"/>
     </g>
     <g id="line2d_8">
      <g>
       <use xlink:href="#m4d0ce05903" x="260.488082" y="257.998281" style="stroke: #000000; stroke-width: 0.8"/>
      </g>
     </g>
     <g id="text_4">
      <text style="font-size: 10px; font-family: 'DejaVu Serif', 'Times New Roman', 'Times', serif; text-anchor: middle" x="260.488082" y="272.596719" transform="rotate(-0 260.488082 272.596719)">3</text>
     </g>
    </g>
    <g id="xtick_5">
     <g id="line2d_9">
      <path d="M 322.42081 257.998281 
L 322.42081 21.558281 
" clip-path="url(#p8df5acd3e5)" style="fill: none; stroke: #cccccc; stroke-width: 0.4; stroke-linecap: square"/>
     </g>
     <g id="line2d_10">
      <g>
       <use xlink:href="#m4d0ce05903" x="322.42081" y="257.998281" style="stroke: #000000; stroke-width: 0.8"/>
      </g>
     </g>
     <g id="text_5">
      <text style="font-size: 10px; font-family: 'DejaVu Serif', 'Times New Roman', 'Times', serif; text-anchor: middle" x="322.42081" y="272.596719" transform="rotate(-0 322.42081 272.596719)">4</text>
     </g>
    </g>
    <g id="xtick_6">
     <g id="line2d_11">
      <path d="M 384.353537 257.998281 
L 384.353537 21.558281 
" clip-path="url(#p8df5acd3e5)" style="fill: none; stroke: #cccccc; stroke-width: 0.4; stroke-linecap: square"/>
     </g>
     <g id="line2d_12">
      <g>
       <use xlink:href="#m4d0ce05903" x="384.353537" y="257.998281" style="stroke: #000000; stroke-width: 0.8"/>
      </g>
     </g>
     <g id="text_6">
      <text style="font-size: 10px; font-family: 'DejaVu Serif', 'Times New Roman', 'Times', serif; text-anchor: middle" x="384.353537" y="272.596719" transform="rotate(-0 384.353537 272.596719)">5</text>
     </g>
    </g>
    <g id="text_7">
     <text style="font-size: 9.5px; font-family: 'DejaVu Serif', 'Times New Roman', 'Times', serif; text-anchor: middle" x="229.521719" y="285.894922" transform="rotate(-0 229.521719 285.894922)">virtual time (s)</text>
    </g>
   </g>
   <g id="matplotlib.axis_2">
    <g id="ytick_1">
     <g id="line2d_13">
      <path d="M 59.206719 247.251009 
L 399.836719 247.251009 
" clip-path="url(#p8df5acd3e5)" style="fill: none; stroke: #cccccc; stroke-width: 0.4; stroke-linecap: square"/>
     </g>
     <g id="line2d_14">
      <defs>
       <path id="m1dc1cddbf0" d="M 0 0 
L -3.5 0 
" style="stroke: #000000; stroke-width: 0.8"/>
      </defs>
      <g>
       <use xlink:href="#m1dc1cddbf0" x="59.206719" y="247.251009" style="stroke: #000000; stroke-width: 0.8"/>
      </g>
     </g>
     <g id="text_8">
      <text style="font-size: 10px; font-family: 'DejaVu Serif', 'Times New Roman', 'Times', serif; text-anchor: end" x="52.206719" y="251.050227" transform="rotate(-0 52.206719 251.050227)">0</text>
     </g>
    </g>
    <g id="ytick_2">
     <g id="line2d_15">
      <path d="M 59.206719 204.261918 
L 399.836719 204.261918 
" clip-path="url(#p8df5acd3e5)" style="fill: none; stroke: #cccccc; stroke-width: 0.4; stroke-linecap: square"/>
     </g>
     <g id="line2d_16">
      <g>
       <use xlink:href="#m1dc1cddbf0" x="59.206719" y="204.261918" style="stroke: #000000; stroke-width: 0.8"/>
      </g>
     </g>
     <g id="text_9">
      <text style="font-size: 10px; font-family: 'DejaVu Serif', 'Times New Roman', 'Times', serif; text-anchor: end" x="52.206719" y="208.061136" transform="rotate(-0 52.206719 208.061136)">2000</text>
     </g>
    </g>
    <g id="ytick_3">
     <g id="line2d_17">
      <path d="M 59.206719 161.272827 
L 399.836719 161.272827 
" clip-path="url(#p8df5acd3e5)" style="fill: none; stroke: #cccccc; stroke-width: 0.4; stroke-linecap: square"/>
     </g>
     <g id="line2d_18">
      <g>
       <use xlink:href="#m1dc1cddbf0" x="59.206719" y="161.272827" style="stroke: #000000; stroke-width: 0.8"/>
      </g>
     </g>
     <g id="text_10">
      <text style="font-size: 10px; font-family: 'DejaVu Serif', 'Times New Roman', 'Times', serif; text-anchor: end" x="52.206719" y="165.072045" transform="rotate(-0 52.206719 165.072045)">4000</text>
     </g>
    </g>
    <g id="ytick_4">
     <g id="line2d_19">
      <path d="M 59.206719 118.283736 
L 399.836719 118.283736 
" clip-path="url(#p8df5acd3e5)" style="fill: none; stroke: #cccccc; stroke-width: 0.4; stroke-linecap: square"/>
     </g>
     <g id="line2d_20">
      <g>
       <use xlink:href="#m1dc1cddbf0" x="59.206719" y="118.283736" style="stroke: #000000; stroke-width: 0.8"/>
      </g>
     </g>
     <g id="text_11">
      <text style="font-size: 10px; font-family: 'DejaVu Serif', 'Times New Roman', 'Times', serif; text-anchor: end" x="52.206719" y="122.082955" transform="rotate(-0 52.206719 122.082955)">6000</text>
     </g>
    </g>
    <g id="ytick_5">
     <g id="line2d_21">
      <path d="M 59.206719 75.294645 
L 399.836719 75.294645 
" clip-path="url(#p8df5acd3e5)" style="fill: none; stroke: #cccccc; stroke-width: 0.4; stroke-linecap: square"/>
     </g>
     <g id="line2d_22">
      <g>
       <use xlink:href="#m1dc1cddbf0" x="59.206719" y="75.294645" style="stroke: #000000; stroke-width: 0.8"/>
      </g>
     </g>
     <g id="text_12">
      <text style="font-size: 10px; font-family: 'DejaVu Serif', 'Times New Roman', 'Times', serif; text-anchor: end" x="52.206719" y="79.093864" transform="rotate(-0 52.206719 79.093864)">8000</text>
     </g>
    </g>
    <g id="ytick_6">
     <g id="line2d_23">
      <path d="M 59.206719 32.305554 
L 399.836719 32.305554 
" clip-path="url(#p8df5acd3e5)" style="fill: none; stroke: #cccccc; stroke-width: 0.4; stroke-linecap: square"/>
     </g>
     <g id="line2d_24">
      <g>
       <use xlink:href="#m1dc1cddbf0" x="59.206719" y="32.305554" style="stroke: #000000; stroke-width: 0.8"/>
      </g>
     </g>
     <g id="text_13">
      <text style="font-size: 10px; font-family: 'DejaVu Serif', 'Times New Roman', 'Times', serif; text-anchor: end" x="52.206719" y="36.104773" transform="rotate(-0 52.206719 36.104773)">10000</text>
     </g>
    </g>
    <g id="text_14">
     <text style="font-size: 9.5px; font-family: 'DejaVu Serif', 'Times New Roman', 'Times', serif; text-anchor: middle" x="14.418516" y="139.778281" transform="rotate(-90 14.418516 139.778281)">hot rule: per-node total</text>
    </g>
   </g>
   <g id="line2d_25">
    <path d="M 74.689901 247.251009 
L 80.883173 242.952099 
L 87.076446 238.65319 
L 93.269719 234.354281 
L 99.462991 230.055372 
L 105.656264 225.756463 
L 111.849537 221.457554 
L 118.04281 217.158645 
L 124.236082 212.859736 
L 130.429355 208.560827 
L 136.622628 204.261918 
L 142.815901 199.963009 
L 149.009173 195.664099 
L 155.202446 191.36519 
L 161.395719 187.066281 
L 167.588991 182.767372 
L 173.782264 178.468463 
L 179.975537 174.169554 
L 186.16881 169.870645 
L 192.362082 165.571736 
L 198.555355 161.272827 
L 204.748628 156.973918 
L 210.941901 152.675009 
L 217.135173 148.376099 
L 223.328446 144.07719 
L 229.521719 139.778281 
L 235.714991 135.479372 
L 241.908264 131.180463 
L 248.101537 126.881554 
L 254.29481 122.582645 
L 260.488082 118.283736 
L 266.681355 113.984827 
L 272.874628 109.685918 
L 279.067901 105.387009 
L 285.261173 101.088099 
L 291.454446 96.78919 
L 297.647719 92.490281 
L 303.840991 88.191372 
L 310.034264 83.892463 
L 316.227537 79.593554 
L 322.42081 75.294645 
L 328.614082 70.995736 
L 334.807355 66.696827 
L 341.000628 62.397918 
L 347.193901 58.099009 
L 353.387173 53.800099 
L 359.580446 49.50119 
L 365.773719 45.202281 
L 371.966991 40.903372 
L 378.160264 36.604463 
L 384.353537 32.305554 
" clip-path="url(#p8df5acd3e5)" style="fill: none; stroke: #202020; stroke-opacity: 0.6; stroke-linecap: square"/>
   </g>
   <g id="line2d_26">
    <path d="M 74.689901 247.251009 
L 80.883173 242.952099 
L 87.076446 238.65319 
L 93.269719 238.65319 
L 99.462991 230.055372 
L 105.656264 225.756463 
L 111.849537 221.457554 
L 118.04281 217.158645 
L 124.236082 212.859736 
L 130.429355 208.560827 
L 136.622628 204.261918 
L 142.815901 199.963009 
L 149.009173 195.664099 
L 155.202446 191.36519 
L 161.395719 187.066281 
L 167.588991 182.767372 
L 173.782264 178.468463 
L 179.975537 174.169554 
L 186.16881 169.870645 
L 192.362082 165.571736 
L 198.555355 161.272827 
L 204.748628 156.973918 
L 210.941901 152.675009 
L 217.135173 148.376099 
L 223.328446 144.07719 
L 229.521719 139.778281 
L 235.714991 135.479372 
L 241.908264 131.180463 
L 248.101537 126.881554 
L 254.29481 122.582645 
L 260.488082 118.283736 
L 266.681355 113.984827 
L 272.874628 109.685918 
L 279.067901 105.387009 
L 285.261173 101.088099 
L 291.454446 96.78919 
L 297.647719 92.490281 
L 303.840991 88.191372 
L 310.034264 83.892463 
L 316.227537 79.593554 
L 322.42081 75.294645 
L 328.614082 70.995736 
L 334.807355 66.696827 
L 341.000628 62.397918 
L 347.193901 58.099009 
L 353.387173 53.800099 
L 359.580446 49.50119 
L 365.773719 45.202281 
L 371.966991 40.903372 
L 378.160264 36.604463 
L 384.353537 32.305554 
" clip-path="url(#p8df5acd3e5)" style="fill: none; stroke: #6e6e6e; stroke-opacity: 0.6; stroke-linecap: square"/>
   </g>
   <g id="line2d_27">
    <path d="M 74.689901 247.251009 
L 80.883173 242.952099 
L 87.076446 238.65319 
L 93.269719 234.354281 
L 99.462991 230.055372 
L 105.656264 225.756463 
L 111.849537 221.457554 
L 118.04281 217.158645 
L 124.236082 212.859736 
L 130.429355 208.560827 
L 136.622628 204.261918 
L 142.815901 199.963009 
L 149.009173 195.664099 
L 155.202446 191.36519 
L 161.395719 187.066281 
L 167.588991 182.767372 
L 173.782264 178.468463 
L 179.975537 174.169554 
L 186.16881 169.870645 
L 192.362082 165.571736 
L 198.555355 161.272827 
L 204.748628 156.973918 
L 210.941901 152.675009 
L 217.135173 148.376099 
L 223.328446 144.07719 
L 229.521719 139.778281 
L 235.714991 135.479372 
L 241.908264 131.180463 
L 248.101537 126.881554 
L 254.29481 122.582645 
L 260.488082 118.283736 
L 266.681355 113.984827 
L 272.874628 109.685918 
L 279.067901 105.387009 
L 285.261173 101.088099 
L 291.454446 96.78919 
L 297.647719 92.490281 
L 303.840991 88.191372 
L 310.034264 83.892463 
L 316.227537 79.593554 
L 322.42081 75.294645 
L 328.614082 70.995736 
L 334.807355 66.696827 
L 341.000628 62.397918 
L 347.193901 58.099009 
L 353.387173 53.800099 
L 359.580446 49.50119 
L 365.773719 45.202281 
L 371.966991 40.903372 
L 378.160264 36.604463 
L 384.353537 32.305554 
" clip-path="url(#p8df5acd3e5)" style="fill: none; stroke: #8a1a1f; stroke-opacity: 0.6; stroke-linecap: square"/>
   </g>
   <g id="line2d_28">
    <path d="M 74.689901 247.251009 
L 80.883173 247.251009 
L 87.076446 238.65319 
L 93.269719 234.354281 
L 99.462991 230.055372 
L 105.656264 225.756463 
L 111.849537 221.457554 
L 118.04281 217.158645 
L 124.236082 212.859736 
L 130.429355 208.560827 
L 136.622628 204.261918 
L 142.815901 199.963009 
L 149.009173 195.664099 
L 155.202446 191.36519 
L 161.395719 187.066281 
L 167.588991 182.767372 
L 173.782264 178.468463 
L 179.975537 174.169554 
L 186.16881 169.870645 
L 192.362082 165.571736 
L 198.555355 161.272827 
L 204.748628 156.973918 
L 210.941901 152.675009 
L 217.135173 148.376099 
L 223.328446 144.07719 
L 229.521719 139.778281 
L 235.714991 135.479372 
L 241.908264 131.180463 
L 248.101537 126.881554 
L 254.29481 122.582645 
L 260.488082 118.283736 
L 266.681355 113.984827 
L 272.874628 109.685918 
L 279.067901 105.387009 
L 285.261173 101.088099 
L 291.454446 96.78919 
L 297.647719 92.490281 
L 303.840991 88.191372 
L 310.034264 83.892463 
L 316.227537 79.593554 
L 322.42081 75.294645 
L 328.614082 70.995736 
L 334.807355 66.696827 
L 341.000628 62.397918 
L 347.193901 58.099009 
L 353.387173 53.800099 
L 359.580446 49.50119 
L 365.773719 45.202281 
L 371.966991 40.903372 
L 378.160264 36.604463 
L 384.353537 32.305554 
" clip-path="url(#p8df5acd3e5)" style="fill: none; stroke: #274060; stroke-opacity: 0.6; stroke-linecap: square"/>
   </g>
   <g id="line2d_29">
    <path d="M 74.689901 247.251009 
L 80.883173 242.952099 
L 87.076446 238.65319 
L 93.269719 234.354281 
L 99.462991 230.055372 
L 105.656264 225.756463 
L 111.849537 221.457554 
L 118.04281 217.158645 
L 124.236082 212.859736 
L 130.429355 208.560827 
L 136.622628 204.261918 
L 142.815901 199.963009 
L 149.009173 195.664099 
L 155.202446 191.36519 
L 161.395719 187.066281 
L 167.588991 182.767372 
L 173.782264 178.468463 
L 179.975537 174.169554 
L 186.16881 169.870645 
L 192.362082 165.571736 
L 198.555355 161.272827 
L 204.748628 156.973918 
L 210.941901 152.675009 
L 217.135173 148.376099 
L 223.328446 144.07719 
L 229.521719 139.778281 
L 235.714991 135.479372 
L 241.908264 131.180463 
L 248.101537 126.881554 
L 254.29481 122.582645 
L 260.488082 118.283736 
L 266.681355 113.984827 
L 272.874628 109.685918 
L 279.067901 105.387009 
L 285.261173 101.088099 
L 291.454446 96.78919 
L 297.647719 92.490281 
L 303.840991 88.191372 
L 310.034264 83.892463 
L 316.227537 79.593554 
L 322.42081 75.294645 
L 328.614082 70.995736 
L 334.807355 66.696827 
L 341.000628 62.397918 
L 347.193901 58.099009 
L 353.387173 53.800099 
L 359.580446 49.50119 
L 365.773719 45.202281 
L 371.966991 40.903372 
L 378.160264 36.604463 
L 384.353537 32.305554 
" clip-path="url(#p8df5acd3e5)" style="fill: none; stroke: #7a6f4a; stroke-opacity: 0.6; stroke-linecap: square"/>
   </g>
   <g id="line2d_30">
    <path d="M 74.689901 247.251009 
L 80.883173 242.952099 
L 87.076446 238.65319 
L 93.269719 234.354281 
L 99.462991 230.055372 
L 105.656264 225.756463 
L 111.849537 221.457554 
L 118.04281 217.158645 
L 124.236082 212.859736 
L 130.429355 208.560827 
L 136.622628 204.261918 
L 142.815901 199.963009 
L 149.009173 195.664099 
L 155.202446 191.36519 
L 161.395719 187.066281 
L 167.588991 182.767372 
L 173.782264 178.468463 
L 179.975537 174.169554 
L 186.16881 169.870645 
L 192.362082 165.571736 
L 198.555355 161.272827 
L 204.748628 156.973918 
L 210.941901 152.675009 
L 217.135173 148.376099 
L 223.328446 144.07719 
L 229.521719 139.778281 
L 235.714991 135.479372 
L 241.908264 131.180463 
L 248.101537 126.881554 
L 254.29481 122.582645 
L 260.488082 118.283736 
L 266.681355 113.984827 
L 272.874628 109.685918 
L 279.067901 105.387009 
L 285.261173 101.088099 
L 291.454446 96.78919 
L 297.647719 92.490281 
L 303.840991 88.191372 
L 310.034264 83.892463 
L 316.227537 79.593554 
L 322.42081 75.294645 
L 328.614082 70.995736 
L 334.807355 66.696827 
L 341.000628 62.397918 
L 347.193901 58.099009 
L 353.387173 53.800099 
L 359.580446 49.50119 
L 365.773719 45.202281 
L 371.966991 40.903372 
L 378.160264 36.604463 
L 384.353537 32.305554 
" clip-path="url(#p8df5acd3e5)" style="fill: none; stroke: #4f6457; stroke-opacity: 0.6; stroke-linecap: square"/>
   </g>
   <g id="line2d_31">
    <path d="M 74.689901 247.251009 
L 80.883173 242.952099 
L 87.076446 238.65319 
L 93.269719 234.354281 
L 99.462991 230.055372 
L 105.656264 225.756463 
L 111.849537 221.457554 
L 118.04281 217.158645 
L 124.236082 212.859736 
L 130.429355 208.560827 
L 136.622628 204.261918 
L 142.815901 199.963009 
L 149.009173 195.664099 
L 155.202446 191.36519 
L 161.395719 187.066281 
L 167.588991 182.767372 
L 173.782264 178.468463 
L 179.975537 174.169554 
L 186.16881 169.870645 
L 192.362082 165.571736 
L 198.555355 161.272827 
L 204.748628 156.973918 
L 210.941901 152.675009 
L 217.135173 148.376099 
L 223.328446 144.07719 
L 229.521719 139.778281 
L 235.714991 135.479372 
L 241.908264 131.180463 
L 248.101537 126.881554 
L 254.29481 122.582645 
L 260.488082 118.283736 
L 266.681355 113.984827 
L 272.874628 109.685918 
L 279.067901 105.387009 
L 285.261173 101.088099 
L 291.454446 96.78919 
L 297.647719 92.490281 
L 303.840991 88.191372 
L 310.034264 83.892463 
L 316.227537 79.593554 
L 322.42081 75.294645 
L 328.614082 70.995736 
L 334.807355 66.696827 
L 341.000628 62.397918 
L 347.193901 58.099009 
L 353.387173 53.800099 
L 359.580446 49.50119 
L 365.773719 45.202281 
L 371.966991 40.903372 
L 378.160264 36.604463 
L 384.353537 32.305554 
" clip-path="url(#p8df5acd3e5)" style="fill: none; stroke: #a05828; stroke-opacity: 0.6; stroke-linecap: square"/>
   </g>
   <g id="line2d_32">
    <path d="M 74.689901 247.251009 
L 80.883173 242.952099 
L 87.076446 238.65319 
L 93.269719 234.354281 
L 99.462991 230.055372 
L 105.656264 225.756463 
L 111.849537 221.457554 
L 118.04281 217.158645 
L 124.236082 212.859736 
L 130.429355 208.560827 
L 136.622628 204.261918 
L 142.815901 199.963009 
L 149.009173 195.664099 
L 155.202446 191.36519 
L 161.395719 187.066281 
L 167.588991 182.767372 
L 173.782264 178.468463 
L 179.975537 174.169554 
L 186.16881 169.870645 
L 192.362082 165.571736 
L 198.555355 161.272827 
L 204.748628 156.973918 
L 210.941901 152.675009 
L 217.135173 148.376099 
L 223.328446 144.07719 
L 229.521719 139.778281 
L 235.714991 135.479372 
L 241.908264 131.180463 
L 248.101537 126.881554 
L 254.29481 122.582645 
L 260.488082 118.283736 
L 266.681355 113.984827 
L 272.874628 109.685918 
L 279.067901 105.387009 
L 285.261173 101.088099 
L 291.454446 96.78919 
L 297.647719 92.490281 
L 303.840991 88.191372 
L 310.034264 83.892463 
L 316.227537 79.593554 
L 322.42081 75.294645 
L 328.614082 70.995736 
L 334.807355 66.696827 
L 341.000628 62.397918 
L 347.193901 58.099009 
L 353.387173 53.800099 
L 359.580446 49.50119 
L 365.773719 45.202281 
L 371.966991 40.903372 
L 378.160264 36.604463 
L 384.353537 32.305554 
" clip-path="url(#p8df5acd3e5)" style="fill: none; stroke: #5a3a5e; stroke-opacity: 0.6; stroke-linecap: square"/>
   </g>
   <g id="line2d_33">
    <path d="M 74.689901 247.251009 
L 80.883173 242.952099 
L 87.076446 238.65319 
L 93.269719 234.354281 
L 99.462991 230.055372 
L 105.656264 225.756463 
L 111.849537 221.457554 
L 118.04281 217.158645 
L 124.236082 212.859736 
L 130.429355 208.560827 
L 136.622628 204.261918 
L 142.815901 199.963009 
L 149.009173 195.664099 
L 155.202446 191.36519 
L 161.395719 187.066281 
L 167.588991 182.767372 
L 173.782264 178.468463 
L 179.975537 174.169554 
L 186.16881 169.870645 
L 192.362082 165.571736 
L 198.555355 161.272827 
L 204.748628 156.973918 
L 210.941901 152.675009 
L 217.135173 148.376099 
L 223.328446 144.07719 
L 229.521719 139.778281 
L 235.714991 135.479372 
L 241.908264 131.180463 
L 248.101537 126.881554 
L 254.29481 122.582645 
L 260.488082 118.283736 
L 266.681355 113.984827 
L 272.874628 109.685918 
L 279.067901 105.387009 
L 285.261173 101.088099 
L 291.454446 96.78919 
L 297.647719 92.490281 
L 303.840991 88.191372 
L 310.034264 83.892463 
L 316.227537 79.593554 
L 322.42081 75.294645 
L 328.614082 70.995736 
L 334.807355 66.696827 
L 341.000628 62.397918 
L 347.193901 58.099009 
L 353.387173 53.800099 
L 359.580446 49.50119 
L 365.773719 45.202281 
L 371.966991 40.903372 
L 378.160264 36.604463 
L 384.353537 32.305554 
" clip-path="url(#p8df5acd3e5)" style="fill: none; stroke-dasharray: 5.92,2.56; stroke-dashoffset: 0; stroke: #202020; stroke-width: 1.6"/>
   </g>
   <g id="patch_3">
    <path d="M 59.206719 257.998281 
L 59.206719 21.558281 
" style="fill: none; stroke: #202020; stroke-width: 0.6; stroke-linejoin: miter; stroke-linecap: square"/>
   </g>
   <g id="patch_4">
    <path d="M 59.206719 257.998281 
L 399.836719 257.998281 
" style="fill: none; stroke: #202020; stroke-width: 0.6; stroke-linejoin: miter; stroke-linecap: square"/>
   </g>
   <g id="text_15">
    <text style="font-size: 11px; font-family: 'DejaVu Serif', 'Times New Roman', 'Times', serif; text-anchor: middle" x="229.521719" y="15.558281" transform="rotate(-0 229.521719 15.558281)">Hot rule — threshold fires  ·  first converged at 200 ms</text>
   </g>
   <g id="legend_1">
    <g id="line2d_34">
     <path d="M 66.406719 32.037031 
L 74.406719 32.037031 
L 82.406719 32.037031 
" style="fill: none; stroke-dasharray: 5.92,2.56; stroke-dashoffset: 0; stroke: #202020; stroke-width: 1.6"/>
    </g>
    <g id="text_16">
     <text style="font-size: 8px; font-family: 'DejaVu Serif', 'Times New Roman', 'Times', serif; text-anchor: start" x="88.806719" y="34.837031" transform="rotate(-0 88.806719 34.837031)">ground truth</text>
    </g>
   </g>
  </g>
  <g id="axes_2">
   <g id="patch_5">
    <path d="M 437.026719 257.998281 
L 777.656719 257.998281 
L 777.656719 21.558281 
L 437.026719 21.558281 
z
" style="fill: #ffffff"/>
   </g>
   <g id="matplotlib.axis_3">
    <g id="xtick_7">
     <g id="line2d_35">
      <path d="M 452.509901 257.998281 
L 452.509901 21.558281 
" clip-path="url(#p2926b84191)" style="fill: none; stroke: #cccccc; stroke-width: 0.4; stroke-linecap: square"/>
     </g>
     <g id="line2d_36">
      <g>
       <use xlink:href="#m4d0ce05903" x="452.509901" y="257.998281" style="stroke: #000000; stroke-width: 0.8"/>
      </g>
     </g>
     <g id="text_17">
      <text style="font-size: 10px; font-family: 'DejaVu Serif', 'Times New Roman', 'Times', serif; text-anchor: middle" x="452.509901" y="272.596719" transform="rotate(-0 452.509901 272.596719)">0</text>
     </g>
    </g>
    <g id="xtick_8">
     <g id="line2d_37">
      <path d="M 514.442628 257.998281 
L 514.442628 21.558281 
" clip-path="url(#p2926b84191)" style="fill: none; stroke: #cccccc; stroke-width: 0.4; stroke-linecap: square"/>
     </g>
     <g id="line2d_38">
      <g>
       <use xlink:href="#m4d0ce05903" x="514.442628" y="257.998281" style="stroke: #000000; stroke-width: 0.8"/>
      </g>
     </g>
     <g id="text_18">
      <text style="font-size: 10px; font-family: 'DejaVu Serif', 'Times New Roman', 'Times', serif; text-anchor: middle" x="514.442628" y="272.596719" transform="rotate(-0 514.442628 272.596719)">1</text>
     </g>
    </g>
    <g id="xtick_9">
     <g id="line2d_39">
      <path d="M 576.375355 257.998281 
L 576.375355 21.558281 
" clip-path="url(#p2926b84191)" style="fill: none; stroke: #cccccc; stroke-width: 0.4; stroke-linecap: square"/>
     </g>
     <g id="line2d_40">
      <g>
       <use xlink:href="#m4d0ce05903" x="576.375355" y="257.998281" style="stroke: #000000; stroke-width: 0.8"/>
      </g>
     </g>
     <g id="text_19">
      <text style="font-size: 10px; font-family: 'DejaVu Serif', 'Times New Roman', 'Times', serif; text-anchor: middle" x="576.375355" y="272.596719" transform="rotate(-0 576.375355 272.596719)">2</text>
     </g>
    </g>
    <g id="xtick_10">
     <g id="line2d_41">
      <path d="M 638.308082 257.998281 
L 638.308082 21.558281 
" clip-path="url(#p2926b84191)" style="fill: none; stroke: #cccccc; stroke-width: 0.4; stroke-linecap: square"/>
     </g>
     <g id="line2d_42">
      <g>
       <use xlink:href="#m4d0ce05903" x="638.308082" y="257.998281" style="stroke: #000000; stroke-width: 0.8"/>
      </g>
     </g>
     <g id="text_20">
      <text style="font-size: 10px; font-family: 'DejaVu Serif', 'Times New Roman', 'Times', serif; text-anchor: middle" x="638.308082" y="272.596719" transform="rotate(-0 638.308082 272.596719)">3</text>
     </g>
    </g>
    <g id="xtick_11">
     <g id="line2d_43">
      <path d="M 700.24081 257.998281 
L 700.24081 21.558281 
" clip-path="url(#p2926b84191)" style="fill: none; stroke: #cccccc; stroke-width: 0.4; stroke-linecap: square"/>
     </g>
     <g id="line2d_44">
      <g>
       <use xlink:href="#m4d0ce05903" x="700.24081" y="257.998281" style="stroke: #000000; stroke-width: 0.8"/>
      </g>
     </g>
     <g id="text_21">
      <text style="font-size: 10px; font-family: 'DejaVu Serif', 'Times New Roman', 'Times', serif; text-anchor: middle" x="700.24081" y="272.596719" transform="rotate(-0 700.24081 272.596719)">4</text>
     </g>
    </g>
    <g id="xtick_12">
     <g id="line2d_45">
      <path d="M 762.173537 257.998281 
L 762.173537 21.558281 
" clip-path="url(#p2926b84191)" style="fill: none; stroke: #cccccc; stroke-width: 0.4; stroke-linecap: square"/>
     </g>
     <g id="line2d_46">
      <g>
       <use xlink:href="#m4d0ce05903" x="762.173537" y="257.998281" style="stroke: #000000; stroke-width: 0.8"/>
      </g>
     </g>
     <g id="text_22">
      <text style="font-size: 10px; font-family: 'DejaVu Serif', 'Times New Roman', 'Times', serif; text-anchor: middle" x="762.173537" y="272.596719" transform="rotate(-0 762.173537 272.596719)">5</text>
     </g>
    </g>
    <g id="text_23">
     <text style="font-size: 9.5px; font-family: 'DejaVu Serif', 'Times New Roman', 'Times', serif; text-anchor: middle" x="607.341719" y="285.894922" transform="rotate(-0 607.341719 285.894922)">virtual time (s)</text>
    </g>
   </g>
   <g id="matplotlib.axis_4">
    <g id="ytick_7">
     <g id="line2d_47">
      <path d="M 437.026719 247.251009 
L 777.656719 247.251009 
" clip-path="url(#p2926b84191)" style="fill: none; stroke: #cccccc; stroke-width: 0.4; stroke-linecap: square"/>
     </g>
     <g id="line2d_48">
      <g>
       <use xlink:href="#m1dc1cddbf0" x="437.026719" y="247.251009" style="stroke: #000000; stroke-width: 0.8"/>
      </g>
     </g>
     <g id="text_24">
      <text style="font-size: 10px; font-family: 'DejaVu Serif', 'Times New Roman', 'Times', serif; text-anchor: end" x="430.026719" y="251.050227" transform="rotate(-0 430.026719 251.050227)">0</text>
     </g>
    </g>
    <g id="ytick_8">
     <g id="line2d_49">
      <path d="M 437.026719 204.261918 
L 777.656719 204.261918 
" clip-path="url(#p2926b84191)" style="fill: none; stroke: #cccccc; stroke-width: 0.4; stroke-linecap: square"/>
     </g>
     <g id="line2d_50">
      <g>
       <use xlink:href="#m1dc1cddbf0" x="437.026719" y="204.261918" style="stroke: #000000; stroke-width: 0.8"/>
      </g>
     </g>
     <g id="text_25">
      <text style="font-size: 10px; font-family: 'DejaVu Serif', 'Times New Roman', 'Times', serif; text-anchor: end" x="430.026719" y="208.061136" transform="rotate(-0 430.026719 208.061136)">1</text>
     </g>
    </g>
    <g id="ytick_9">
     <g id="line2d_51">
      <path d="M 437.026719 161.272827 
L 777.656719 161.272827 
" clip-path="url(#p2926b84191)" style="fill: none; stroke: #cccccc; stroke-width: 0.4; stroke-linecap: square"/>
     </g>
     <g id="line2d_52">
      <g>
       <use xlink:href="#m1dc1cddbf0" x="437.026719" y="161.272827" style="stroke: #000000; stroke-width: 0.8"/>
      </g>
     </g>
     <g id="text_26">
      <text style="font-size: 10px; font-family: 'DejaVu Serif', 'Times New Roman', 'Times', serif; text-anchor: end" x="430.026719" y="165.072045" transform="rotate(-0 430.026719 165.072045)">2</text>
     </g>
    </g>
    <g id="ytick_10">
     <g id="line2d_53">
      <path d="M 437.026719 118.283736 
L 777.656719 118.283736 
" clip-path="url(#p2926b84191)" style="fill: none; stroke: #cccccc; stroke-width: 0.4; stroke-linecap: square"/>
     </g>
     <g id="line2d_54">
      <g>
       <use xlink:href="#m1dc1cddbf0" x="437.026719" y="118.283736" style="stroke: #000000; stroke-width: 0.8"/>
      </g>
     </g>
     <g id="text_27">
      <text style="font-size: 10px; font-family: 'DejaVu Serif', 'Times New Roman', 'Times', serif; text-anchor: end" x="430.026719" y="122.082955" transform="rotate(-0 430.026719 122.082955)">3</text>
     </g>
    </g>
    <g id="ytick_11">
     <g id="line2d_55">
      <path d="M 437.026719 75.294645 
L 777.656719 75.294645 
" clip-path="url(#p2926b84191)" style="fill: none; stroke: #cccccc; stroke-width: 0.4; stroke-linecap: square"/>
     </g>
     <g id="line2d_56">
      <g>
       <use xlink:href="#m1dc1cddbf0" x="437.026719" y="75.294645" style="stroke: #000000; stroke-width: 0.8"/>
      </g>
     </g>
     <g id="text_28">
      <text style="font-size: 10px; font-family: 'DejaVu Serif', 'Times New Roman', 'Times', serif; text-anchor: end" x="430.026719" y="79.093864" transform="rotate(-0 430.026719 79.093864)">4</text>
     </g>
    </g>
    <g id="ytick_12">
     <g id="line2d_57">
      <path d="M 437.026719 32.305554 
L 777.656719 32.305554 
" clip-path="url(#p2926b84191)" style="fill: none; stroke: #cccccc; stroke-width: 0.4; stroke-linecap: square"/>
     </g>
     <g id="line2d_58">
      <g>
       <use xlink:href="#m1dc1cddbf0" x="437.026719" y="32.305554" style="stroke: #000000; stroke-width: 0.8"/>
      </g>
     </g>
     <g id="text_29">
      <text style="font-size: 10px; font-family: 'DejaVu Serif', 'Times New Roman', 'Times', serif; text-anchor: end" x="430.026719" y="36.104773" transform="rotate(-0 430.026719 36.104773)">5</text>
     </g>
    </g>
    <g id="text_30">
     <text style="font-size: 9.5px; font-family: 'DejaVu Serif', 'Times New Roman', 'Times', serif; text-anchor: middle" x="417.688516" y="139.778281" transform="rotate(-90 417.688516 139.778281)">cold rule: per-node total</text>
    </g>
   </g>
   <g id="line2d_59">
    <path d="M 452.509901 247.251009 
L 458.703173 204.261918 
L 464.896446 204.261918 
L 471.089719 204.261918 
L 477.282991 204.261918 
L 483.476264 204.261918 
L 489.669537 204.261918 
L 495.86281 204.261918 
L 502.056082 204.261918 
L 508.249355 204.261918 
L 514.442628 204.261918 
L 520.635901 161.272827 
L 526.829173 161.272827 
L 533.022446 161.272827 
L 539.215719 161.272827 
L 545.408991 161.272827 
L 551.602264 161.272827 
L 557.795537 161.272827 
L 563.98881 161.272827 
L 570.182082 161.272827 
L 576.375355 161.272827 
L 582.568628 118.283736 
L 588.761901 118.283736 
L 594.955173 118.283736 
L 601.148446 118.283736 
L 607.341719 118.283736 
L 613.534991 118.283736 
L 619.728264 118.283736 
L 625.921537 118.283736 
L 632.11481 118.283736 
L 638.308082 118.283736 
L 644.501355 75.294645 
L 650.694628 75.294645 
L 656.887901 75.294645 
L 663.081173 75.294645 
L 669.274446 75.294645 
L 675.467719 75.294645 
L 681.660991 75.294645 
L 687.854264 75.294645 
L 694.047537 75.294645 
L 700.24081 75.294645 
L 706.434082 32.305554 
L 712.627355 32.305554 
L 718.820628 32.305554 
L 725.013901 32.305554 
L 731.207173 32.305554 
L 737.400446 32.305554 
L 743.593719 32.305554 
L 749.786991 32.305554 
L 755.980264 32.305554 
L 762.173537 32.305554 
" clip-path="url(#p2926b84191)" style="fill: none; stroke: #202020; stroke-opacity: 0.6; stroke-linecap: square"/>
   </g>
   <g id="line2d_60">
    <path d="M 452.509901 247.251009 
L 458.703173 204.261918 
L 464.896446 204.261918 
L 471.089719 204.261918 
L 477.282991 204.261918 
L 483.476264 204.261918 
L 489.669537 204.261918 
L 495.86281 204.261918 
L 502.056082 204.261918 
L 508.249355 204.261918 
L 514.442628 204.261918 
L 520.635901 161.272827 
L 526.829173 161.272827 
L 533.022446 161.272827 
L 539.215719 161.272827 
L 545.408991 161.272827 
L 551.602264 161.272827 
L 557.795537 161.272827 
L 563.98881 161.272827 
L 570.182082 161.272827 
L 576.375355 161.272827 
L 582.568628 118.283736 
L 588.761901 118.283736 
L 594.955173 118.283736 
L 601.148446 118.283736 
L 607.341719 118.283736 
L 613.534991 118.283736 
L 619.728264 118.283736 
L 625.921537 118.283736 
L 632.11481 118.283736 
L 638.308082 118.283736 
L 644.501355 75.294645 
L 650.694628 75.294645 
L 656.887901 75.294645 
L 663.081173 75.294645 
L 669.274446 75.294645 
L 675.467719 75.294645 
L 681.660991 75.294645 
L 687.854264 75.294645 
L 694.047537 75.294645 
L 700.24081 75.294645 
L 706.434082 32.305554 
L 712.627355 32.305554 
L 718.820628 32.305554 
L 725.013901 32.305554 
L 731.207173 32.305554 
L 737.400446 32.305554 
L 743.593719 32.305554 
L 749.786991 32.305554 
L 755.980264 32.305554 
L 762.173537 32.305554 
" clip-path="url(#p2926b84191)" style="fill: none; stroke: #6e6e6e; stroke-opacity: 0.6; stroke-linecap: square"/>
   </g>
   <g id="line2d_61">
    <path d="M 452.509901 247.251009 
L 458.703173 204.261918 
L 464.896446 204.261918 
L 471.089719 204.261918 
L 477.282991 204.261918 
L 483.476264 204.261918 
L 489.669537 204.261918 
L 495.86281 204.261918 
L 502.056082 204.261918 
L 508.249355 204.261918 
L 514.442628 204.261918 
L 520.635901 161.272827 
L 526.829173 161.272827 
L 533.022446 161.272827 
L 539.215719 161.272827 
L 545.408991 161.272827 
L 551.602264 161.272827 
L 557.795537 161.272827 
L 563.98881 161.272827 
L 570.182082 161.272827 
L 576.375355 161.272827 
L 582.568628 118.283736 
L 588.761901 118.283736 
L 594.955173 118.283736 
L 601.148446 118.283736 
L 607.341719 118.283736 
L 613.534991 118.283736 
L 619.728264 118.283736 
L 625.921537 118.283736 
L 632.11481 118.283736 
L 638.308082 118.283736 
L 644.501355 75.294645 
L 650.694628 75.294645 
L 656.887901 75.294645 
L 663.081173 75.294645 
L 669.274446 75.294645 
L 675.467719 75.294645 
L 681.660991 75.294645 
L 687.854264 75.294645 
L 694.047537 75.294645 
L 700.24081 75.294645 
L 706.434082 32.305554 
L 712.627355 32.305554 
L 718.820628 32.305554 
L 725.013901 32.305554 
L 731.207173 32.305554 
L 737.400446 32.305554 
L 743.593719 32.305554 
L 749.786991 32.305554 
L 755.980264 32.305554 
L 762.173537 32.305554 
" clip-path="url(#p2926b84191)" style="fill: none; stroke: #8a1a1f; stroke-opacity: 0.6; stroke-linecap: square"/>
   </g>
   <g id="line2d_62">
    <path d="M 452.509901 247.251009 
L 458.703173 247.251009 
L 464.896446 204.261918 
L 471.089719 204.261918 
L 477.282991 204.261918 
L 483.476264 204.261918 
L 489.669537 204.261918 
L 495.86281 204.261918 
L 502.056082 204.261918 
L 508.249355 204.261918 
L 514.442628 204.261918 
L 520.635901 161.272827 
L 526.829173 161.272827 
L 533.022446 161.272827 
L 539.215719 161.272827 
L 545.408991 161.272827 
L 551.602264 161.272827 
L 557.795537 161.272827 
L 563.98881 161.272827 
L 570.182082 161.272827 
L 576.375355 161.272827 
L 582.568628 118.283736 
L 588.761901 118.283736 
L 594.955173 118.283736 
L 601.148446 118.283736 
L 607.341719 118.283736 
L 613.534991 118.283736 
L 619.728264 118.283736 
L 625.921537 118.283736 
L 632.11481 118.283736 
L 638.308082 118.283736 
L 644.501355 75.294645 
L 650.694628 75.294645 
L 656.887901 75.294645 
L 663.081173 75.294645 
L 669.274446 75.294645 
L 675.467719 75.294645 
L 681.660991 75.294645 
L 687.854264 75.294645 
L 694.047537 75.294645 
L 700.24081 75.294645 
L 706.434082 32.305554 
L 712.627355 32.305554 
L 718.820628 32.305554 
L 725.013901 32.305554 
L 731.207173 32.305554 
L 737.400446 32.305554 
L 743.593719 32.305554 
L 749.786991 32.305554 
L 755.980264 32.305554 
L 762.173537 32.305554 
" clip-path="url(#p2926b84191)" style="fill: none; stroke: #274060; stroke-opacity: 0.6; stroke-linecap: square"/>
   </g>
   <g id="line2d_63">
    <path d="M 452.509901 247.251009 
L 458.703173 204.261918 
L 464.896446 204.261918 
L 471.089719 204.261918 
L 477.282991 204.261918 
L 483.476264 204.261918 
L 489.669537 204.261918 
L 495.86281 204.261918 
L 502.056082 204.261918 
L 508.249355 204.261918 
L 514.442628 204.261918 
L 520.635901 161.272827 
L 526.829173 161.272827 
L 533.022446 161.272827 
L 539.215719 161.272827 
L 545.408991 161.272827 
L 551.602264 161.272827 
L 557.795537 161.272827 
L 563.98881 161.272827 
L 570.182082 161.272827 
L 576.375355 161.272827 
L 582.568628 118.283736 
L 588.761901 118.283736 
L 594.955173 118.283736 
L 601.148446 118.283736 
L 607.341719 118.283736 
L 613.534991 118.283736 
L 619.728264 118.283736 
L 625.921537 118.283736 
L 632.11481 118.283736 
L 638.308082 118.283736 
L 644.501355 75.294645 
L 650.694628 75.294645 
L 656.887901 75.294645 
L 663.081173 75.294645 
L 669.274446 75.294645 
L 675.467719 75.294645 
L 681.660991 75.294645 
L 687.854264 75.294645 
L 694.047537 75.294645 
L 700.24081 75.294645 
L 706.434082 32.305554 
L 712.627355 32.305554 
L 718.820628 32.305554 
L 725.013901 32.305554 
L 731.207173 32.305554 
L 737.400446 32.305554 
L 743.593719 32.305554 
L 749.786991 32.305554 
L 755.980264 32.305554 
L 762.173537 32.305554 
" clip-path="url(#p2926b84191)" style="fill: none; stroke: #7a6f4a; stroke-opacity: 0.6; stroke-linecap: square"/>
   </g>
   <g id="line2d_64">
    <path d="M 452.509901 247.251009 
L 458.703173 247.251009 
L 464.896446 204.261918 
L 471.089719 204.261918 
L 477.282991 204.261918 
L 483.476264 204.261918 
L 489.669537 204.261918 
L 495.86281 204.261918 
L 502.056082 204.261918 
L 508.249355 204.261918 
L 514.442628 204.261918 
L 520.635901 161.272827 
L 526.829173 161.272827 
L 533.022446 161.272827 
L 539.215719 161.272827 
L 545.408991 161.272827 
L 551.602264 161.272827 
L 557.795537 161.272827 
L 563.98881 161.272827 
L 570.182082 161.272827 
L 576.375355 161.272827 
L 582.568628 118.283736 
L 588.761901 118.283736 
L 594.955173 118.283736 
L 601.148446 118.283736 
L 607.341719 118.283736 
L 613.534991 118.283736 
L 619.728264 118.283736 
L 625.921537 118.283736 
L 632.11481 118.283736 
L 638.308082 118.283736 
L 644.501355 75.294645 
L 650.694628 75.294645 
L 656.887901 75.294645 
L 663.081173 75.294645 
L 669.274446 75.294645 
L 675.467719 75.294645 
L 681.660991 75.294645 
L 687.854264 75.294645 
L 694.047537 75.294645 
L 700.24081 75.294645 
L 706.434082 32.305554 
L 712.627355 32.305554 
L 718.820628 32.305554 
L 725.013901 32.305554 
L 731.207173 32.305554 
L 737.400446 32.305554 
L 743.593719 32.305554 
L 749.786991 32.305554 
L 755.980264 32.305554 
L 762.173537 32.305554 
" clip-path="url(#p2926b84191)" style="fill: none; stroke: #4f6457; stroke-opacity: 0.6; stroke-linecap: square"/>
   </g>
   <g id="line2d_65">
    <path d="M 452.509901 247.251009 
L 458.703173 204.261918 
L 464.896446 204.261918 
L 471.089719 204.261918 
L 477.282991 204.261918 
L 483.476264 204.261918 
L 489.669537 204.261918 
L 495.86281 204.261918 
L 502.056082 204.261918 
L 508.249355 204.261918 
L 514.442628 204.261918 
L 520.635901 161.272827 
L 526.829173 161.272827 
L 533.022446 161.272827 
L 539.215719 161.272827 
L 545.408991 161.272827 
L 551.602264 161.272827 
L 557.795537 161.272827 
L 563.98881 161.272827 
L 570.182082 161.272827 
L 576.375355 161.272827 
L 582.568628 118.283736 
L 588.761901 118.283736 
L 594.955173 118.283736 
L 601.148446 118.283736 
L 607.341719 118.283736 
L 613.534991 118.283736 
L 619.728264 118.283736 
L 625.921537 118.283736 
L 632.11481 118.283736 
L 638.308082 118.283736 
L 644.501355 75.294645 
L 650.694628 75.294645 
L 656.887901 75.294645 
L 663.081173 75.294645 
L 669.274446 75.294645 
L 675.467719 75.294645 
L 681.660991 75.294645 
L 687.854264 75.294645 
L 694.047537 75.294645 
L 700.24081 75.294645 
L 706.434082 32.305554 
L 712.627355 32.305554 
L 718.820628 32.305554 
L 725.013901 32.305554 
L 731.207173 32.305554 
L 737.400446 32.305554 
L 743.593719 32.305554 
L 749.786991 32.305554 
L 755.980264 32.305554 
L 762.173537 32.305554 
" clip-path="url(#p2926b84191)" style="fill: none; stroke: #a05828; stroke-opacity: 0.6; stroke-linecap: square"/>
   </g>
   <g id="line2d_66">
    <path d="M 452.509901 247.251009 
L 458.703173 204.261918 
L 464.896446 204.261918 
L 471.089719 204.261918 
L 477.282991 204.261918 
L 483.476264 204.261918 
L 489.669537 204.261918 
L 495.86281 204.261918 
L 502.056082 204.261918 
L 508.249355 204.261918 
L 514.442628 204.261918 
L 520.635901 204.261918 
L 526.829173 161.272827 
L 533.022446 161.272827 
L 539.215719 161.272827 
L 545.408991 161.272827 
L 551.602264 161.272827 
L 557.795537 161.272827 
L 563.98881 161.272827 
L 570.182082 161.272827 
L 576.375355 161.272827 
L 582.568628 118.283736 
L 588.761901 118.283736 
L 594.955173 118.283736 
L 601.148446 118.283736 
L 607.341719 118.283736 
L 613.534991 118.283736 
L 619.728264 118.283736 
L 625.921537 118.283736 
L 632.11481 118.283736 
L 638.308082 118.283736 
L 644.501355 75.294645 
L 650.694628 75.294645 
L 656.887901 75.294645 
L 663.081173 75.294645 
L 669.274446 75.294645 
L 675.467719 75.294645 
L 681.660991 75.294645 
L 687.854264 75.294645 
L 694.047537 75.294645 
L 700.24081 75.294645 
L 706.434082 32.305554 
L 712.627355 32.305554 
L 718.820628 32.305554 
L 725.013901 32.305554 
L 731.207173 32.305554 
L 737.400446 32.305554 
L 743.593719 32.305554 
L 749.786991 32.305554 
L 755.980264 32.305554 
L 762.173537 32.305554 
" clip-path="url(#p2926b84191)" style="fill: none; stroke: #5a3a5e; stroke-opacity: 0.6; stroke-linecap: square"/>
   </g>
   <g id="line2d_67">
    <path d="M 452.509901 247.251009 
L 458.703173 204.261918 
L 464.896446 204.261918 
L 471.089719 204.261918 
L 477.282991 204.261918 
L 483.476264 204.261918 
L 489.669537 204.261918 
L 495.86281 204.261918 
L 502.056082 204.261918 
L 508.249355 204.261918 
L 514.442628 204.261918 
L 520.635901 161.272827 
L 526.829173 161.272827 
L 533.022446 161.272827 
L 539.215719 161.272827 
L 545.408991 161.272827 
L 551.602264 161.272827 
L 557.795537 161.272827 
L 563.98881 161.272827 
L 570.182082 161.272827 
L 576.375355 161.272827 
L 582.568628 118.283736 
L 588.761901 118.283736 
L 594.955173 118.283736 
L 601.148446 118.283736 
L 607.341719 118.283736 
L 613.534991 118.283736 
L 619.728264 118.283736 
L 625.921537 118.283736 
L 632.11481 118.283736 
L 638.308082 118.283736 
L 644.501355 75.294645 
L 650.694628 75.294645 
L 656.887901 75.294645 
L 663.081173 75.294645 
L 669.274446 75.294645 
L 675.467719 75.294645 
L 681.660991 75.294645 
L 687.854264 75.294645 
L 694.047537 75.294645 
L 700.24081 75.294645 
L 706.434082 32.305554 
L 712.627355 32.305554 
L 718.820628 32.305554 
L 725.013901 32.305554 
L 731.207173 32.305554 
L 737.400446 32.305554 
L 743.593719 32.305554 
L 749.786991 32.305554 
L 755.980264 32.305554 
L 762.173537 32.305554 
" clip-path="url(#p2926b84191)" style="fill: none; stroke-dasharray: 5.92,2.56; stroke-dashoffset: 0; stroke: #202020; stroke-width: 1.6"/>
   </g>
   <g id="patch_6">
    <path d="M 437.026719 257.998281 
L 437.026719 21.558281 
" style="fill: none; stroke: #202020; stroke-width: 0.6; stroke-linejoin: miter; stroke-linecap: square"/>
   </g>
   <g id="patch_7">
    <path d="M 437.026719 257.998281 
L 777.656719 257.998281 
" style="fill: none; stroke: #202020; stroke-width: 0.6; stroke-linejoin: miter; stroke-linecap: square"/>
   </g>
   <g id="text_31">
    <text style="font-size: 11px; font-family: 'DejaVu Serif', 'Times New Roman', 'Times', serif; text-anchor: middle" x="607.341719" y="15.558281" transform="rotate(-0 607.341719 15.558281)">Cold rule — heartbeat  ·  first converged at 200 ms</text>
   </g>
   <g id="legend_2">
    <g id="line2d_68">
     <path d="M 444.226719 32.037031 
L 452.226719 32.037031 
L 460.226719 32.037031 
" style="fill: none; stroke-dasharray: 5.92,2.56; stroke-dashoffset: 0; stroke: #202020; stroke-width: 1.6"/>
    </g>
    <g id="text_32">
     <text style="font-size: 8px; font-family: 'DejaVu Serif', 'Times New Roman', 'Times', serif; text-anchor: start" x="466.626719" y="34.837031" transform="rotate(-0 466.626719 34.837031)">ground truth</text>
    </g>
   </g>
  </g>
 </g>
 <defs>
  <clipPath id="p8df5acd3e5">
   <rect x="59.206719" y="21.558281" width="340.63" height="236.44"/>
  </clipPath>
  <clipPath id="p2926b84191">
   <rect x="437.026719" y="21.558281" width="340.63" height="236.44"/>
  </clipPath>
 </defs>
</svg>
